<svg id="about_us_icon" xmlns="http://www.w3.org/2000/svg" xmlns:xlink="http://www.w3.org/1999/xlink" width="23.994" height="23.987" viewBox="0 0 23.994 23.987">
  <defs>
    <linearGradient id="linear-gradient" y1="1" x2="1" gradientUnits="objectBoundingBox">
      <stop offset="0.005" stop-color="#e49e45"/>
      <stop offset="1" stop-color="#e0b154"/>
    </linearGradient>
    <linearGradient id="linear-gradient-2" x1="0" x2="1.917" y2="0.917" xlink:href="#linear-gradient"/>
    <linearGradient id="linear-gradient-3" x1="0" x2="1.003" y2="0.003" xlink:href="#linear-gradient"/>
  </defs>
  <path id="Path_2390" data-name="Path 2390" d="M23.881,4.2a5.62,5.62,0,0,0-1.689-2.778A5.245,5.245,0,0,0,18.626,0H5.4a4.043,4.043,0,0,0-.676.044A5.428,5.428,0,0,0,1.358,1.914,5.345,5.345,0,0,0,0,5.531c.013,4.361.006,8.722.006,13.082a4.042,4.042,0,0,0,.044.676,5.58,5.58,0,0,0,2.884,4.073,4.785,4.785,0,0,0,2.058.626H18.945c.263-.05.538-.031.8-.106a5.664,5.664,0,0,0,3.629-2.828,4.857,4.857,0,0,0,.619-2.077V5.08A8.17,8.17,0,0,0,23.881,4.2ZM18.319,22.117H5.706A3.771,3.771,0,0,1,1.9,18.35V5.662A3.732,3.732,0,0,1,5.668,1.889q6.344-.009,12.688,0a3.732,3.732,0,0,1,3.766,3.773q.009,6.335,0,12.663A3.737,3.737,0,0,1,18.319,22.117Z" fill="url(#linear-gradient)"/>
  <path id="Path_2391" data-name="Path 2391" d="M12.951,10.3v7.114a.936.936,0,1,1-1.871.006c-.006-1.182,0-2.371,0-3.554V10.286a.919.919,0,0,1,.726-.913.936.936,0,0,1,1.032.463A.956.956,0,0,1,12.951,10.3Z" fill="url(#linear-gradient-2)"/>
  <path id="Path_2392" data-name="Path 2392" d="M13.182,6.8a1.167,1.167,0,1,1-1.176-1.164A1.164,1.164,0,0,1,13.182,6.8Z" fill="url(#linear-gradient-3)"/>
</svg>
