<svg xmlns="http://www.w3.org/2000/svg" xmlns:xlink="http://www.w3.org/1999/xlink" width="44.277" height="47.943" viewBox="0 0 44.277 47.943">
  <defs>
    <linearGradient id="linear-gradient" x1="1.822" y1="-3.359" x2="-0.099" y2="0.5" gradientUnits="objectBoundingBox">
      <stop offset="0" stop-color="#e59b44"/>
      <stop offset="1" stop-color="#dfb343"/>
    </linearGradient>
  </defs>
  <g id="audio_icon" transform="translate(-3)">
    <path id="Path_2307" data-name="Path 2307" d="M23.907,43.074H21.444a2.48,2.48,0,0,0-2.119,1.2H9.129a3.655,3.655,0,0,1-3.666-3.666,1.21,1.21,0,0,0-1.2-1.2A1.26,1.26,0,0,0,3,40.611,6.136,6.136,0,0,0,9.129,46.74h10.2a2.362,2.362,0,0,0,2.119,1.2h2.463a2.435,2.435,0,1,0,0-4.869Z" fill="url(#linear-gradient)"/>
    <path id="Path_2308" data-name="Path 2308" d="M44.814,28.983H44.47V18.73a18.7,18.7,0,1,0-37.4,0V28.983h-.4A2.445,2.445,0,0,0,4.2,31.446v3.666a2.445,2.445,0,0,0,2.463,2.463h1.2v1.2a2.445,2.445,0,0,0,2.463,2.463h4.926a2.445,2.445,0,0,0,2.463-2.463v-11a2.445,2.445,0,0,0-2.463-2.463H11.936V18.73a13.8,13.8,0,0,1,27.609,0v6.587H36.222a2.445,2.445,0,0,0-2.463,2.463V38.835A2.445,2.445,0,0,0,36.222,41.3h4.926a2.445,2.445,0,0,0,2.463-2.463v-1.2h1.2a2.445,2.445,0,0,0,2.463-2.463V31.5A2.458,2.458,0,0,0,44.814,28.983Z" fill="url(#linear-gradient)"/>
  </g>
</svg>
