<svg width="49" height="45" viewBox="0 0 49 45" fill="none" xmlns="http://www.w3.org/2000/svg">
<path d="M29.7653 0.173296C27.3393 -0.519845 24.7978 0.924198 24.1047 3.40795C23.4116 5.89171 24.8556 8.37546 27.3393 9.0686C29.7653 9.76174 32.3069 8.3177 33 5.83395C33.6354 3.35019 32.1913 0.808675 29.7653 0.173296Z" fill="url(#paint0_linear_184_36654)"/>
<path d="M7.7581 22.7581C8.27796 20.9098 7.18048 19.0036 5.33211 18.5415C3.48373 18.0217 1.5776 19.1191 1.1155 20.9675C0.595646 22.8159 1.69312 24.722 3.54149 25.1841C5.38987 25.6462 7.23825 24.5488 7.7581 22.7581ZM20.3502 43.2636C24.8556 45.5163 30.3429 45.574 35.0794 42.917C39.7581 40.2599 42.5307 35.4657 42.8772 30.4404C39.8736 32.8664 36.1769 35.3502 32.1336 37.6607C28.0325 39.9711 24.0469 41.8773 20.3502 43.2636ZM48.5379 15.8845C46.805 12.9386 41.2599 13.8628 35.2527 16C30.6317 13.2852 24.6823 12.9964 19.657 15.8845C14.6895 18.7148 11.9169 23.8556 11.8592 29.1697C8.16243 32.1733 5.33211 35.1769 4.69673 37.6029C4.35016 38.9314 4.63897 39.8556 4.98554 40.4332C5.73644 41.7617 7.29601 42.2816 9.31767 42.2816C15.0361 42.2816 24.509 37.9495 30.4585 34.5993C38.7184 29.9784 47.5559 23.278 48.8267 18.7148C49.1733 17.3863 48.8845 16.4621 48.5379 15.8845ZM7.93139 38.7004C7.93139 37.8917 9.37543 35.8701 12.3213 33.2708C12.6678 34.5993 13.1877 35.87 13.8808 37.083C14.0541 37.3719 14.2274 37.6029 14.4007 37.8917C10.935 38.9314 8.62453 39.1047 7.93139 38.7004ZM22.8339 21.4874C20.1769 22.9892 18.444 25.7617 18.2707 28.8231C18.213 29.574 17.5776 30.1516 16.8267 30.1516C16.7689 30.1516 16.7689 30.1516 16.7112 30.1516C15.9025 30.0939 15.3249 29.4007 15.3827 28.6498C15.6715 24.6065 17.9242 21.0253 21.3899 19.0614C22.083 18.6571 22.9494 18.8881 23.3538 19.5812C23.7581 20.2166 23.5271 21.083 22.8339 21.4874ZM41.4332 22.8159C41.2599 22.4116 41.0866 22.065 40.8556 21.7184C40.1624 20.5632 39.4115 19.5235 38.4873 18.5993C42.2996 17.4441 44.8411 17.213 45.5343 17.6751C45.5343 18.426 44.148 20.3321 41.4332 22.8159Z" fill="url(#paint1_linear_184_36654)"/>
<defs>
<linearGradient id="paint0_linear_184_36654" x1="23.9311" y1="9.2422" x2="33.1736" y2="0.0235454" gradientUnits="userSpaceOnUse">
<stop stop-color="#DFB343"/>
<stop offset="1" stop-color="#E59B44"/>
</linearGradient>
<linearGradient id="paint1_linear_184_36654" x1="0.986328" y1="44.933" x2="29.3648" y2="1.12875" gradientUnits="userSpaceOnUse">
<stop stop-color="#DFB343"/>
<stop offset="1" stop-color="#E59B44"/>
</linearGradient>
</defs>
</svg>
