<svg id="bookmark" xmlns="http://www.w3.org/2000/svg" xmlns:xlink="http://www.w3.org/1999/xlink" width="23.568" height="23.989" viewBox="0 0 23.568 23.989">
  <defs>
    <linearGradient id="linear-gradient" y1="1" x2="1" gradientUnits="objectBoundingBox">
      <stop offset="0.005" stop-color="#e49e45"/>
      <stop offset="1" stop-color="#e0b154"/>
    </linearGradient>
  </defs>
  <path id="Path_2445" data-name="Path 2445" d="M-1341.6,453.419a2.642,2.642,0,0,1-1.936-.865q-2.04-2.092-4.077-4.186a1.039,1.039,0,0,1-.09-.114l-.055-.074-.084-.109-2.386,2.45-.636.656c-.444.459-.9.933-1.361,1.394a2.809,2.809,0,0,1-2,.847h0a2.694,2.694,0,0,1-2.349-1.351,2.774,2.774,0,0,1-.357-1.435q0-2.643,0-5.286c0-4,0-8.131,0-12.2a3.65,3.65,0,0,1,3.17-3.683.468.468,0,0,0,.1-.031l.012,0h11.561l.169.037c.128.028.26.056.386.09a3.647,3.647,0,0,1,2.719,3.453.829.829,0,0,1-.77.912l-.056,0a.807.807,0,0,1-.817-.8,2,2,0,0,0-1.194-1.847,2.049,2.049,0,0,0-.824-.182c-1.987-.006-4.039-.009-6.273-.009q-2.259,0-4.517,0a2,2,0,0,0-2,1.889c-.008.12-.009.239-.009.339,0,5.6,0,11.4,0,17.175a1.907,1.907,0,0,0,.059.573,1.032,1.032,0,0,0,1,.7,1.1,1.1,0,0,0,.784-.324c.431-.433.863-.879,1.281-1.31l.537-.554.965-.992,2.121-2.178a.936.936,0,0,1,.656-.323.932.932,0,0,1,.662.327c1.641,1.683,3.246,3.329,4.833,4.968a1.115,1.115,0,0,0,.817.388,1.161,1.161,0,0,0,.326-.049,1.018,1.018,0,0,0,.768-.994.828.828,0,0,1,.523-.787.819.819,0,0,1,.316-.065.8.8,0,0,1,.569.239.852.852,0,0,1,.247.61,2.671,2.671,0,0,1-2.05,2.608A3.188,3.188,0,0,1-1341.6,453.419Z" transform="translate(1356.933 -429.43)" fill="url(#linear-gradient)"/>
  <path id="Path_2446" data-name="Path 2446" d="M-1165.316,544.541a6.278,6.278,0,0,1-6.267-6.267,6.222,6.222,0,0,1,1.837-4.432,6.226,6.226,0,0,1,4.431-1.84h.009a6.282,6.282,0,0,1,6.26,6.266,6.276,6.276,0,0,1-6.254,6.272Zm0-10.884a4.582,4.582,0,0,0-3.264,1.356,4.578,4.578,0,0,0-1.349,3.263,4.624,4.624,0,0,0,4.616,4.609h.009a4.625,4.625,0,0,0,4.6-4.608,4.575,4.575,0,0,0-1.348-3.263,4.582,4.582,0,0,0-3.265-1.358Z" transform="translate(1182.614 -525.897)" fill="url(#linear-gradient)"/>
  <path id="Path_2447" data-name="Path 2447" d="M-1109.214,597.069a.724.724,0,0,1-.626-.326,1.479,1.479,0,0,1-.177-.592,3.722,3.722,0,0,1-.016-.535c0-.085,0-.17,0-.255a.189.189,0,0,0-.023-.082c0-.008-.008-.017-.014-.03l-.03-.074h-.914a.833.833,0,0,1-.9-.827.83.83,0,0,1,.9-.828h1V593.4c0-.113,0-.224,0-.333,0-.24-.007-.468.007-.694a.785.785,0,0,1,.59-.712.869.869,0,0,1,.243-.035.724.724,0,0,1,.626.326,1.443,1.443,0,0,1,.177.59,4.147,4.147,0,0,1,.012.577c0,.092,0,.185,0,.281v.119h1.01a.831.831,0,0,1,.879.825.829.829,0,0,1-.875.829h-1.023v.119c0,.113,0,.224,0,.333,0,.24.007.468-.007.694a.784.784,0,0,1-.591.712A.875.875,0,0,1-1109.214,597.069Z" transform="translate(1126.496 -581.975)" fill="url(#linear-gradient)"/>
</svg>
