<svg xmlns="http://www.w3.org/2000/svg" xmlns:xlink="http://www.w3.org/1999/xlink" width="23.998" height="24.002" viewBox="0 0 23.998 24.002">
  <defs>
    <linearGradient id="linear-gradient" y1="1" x2="1" gradientUnits="objectBoundingBox">
      <stop offset="0.005" stop-color="#e49e45"/>
      <stop offset="1" stop-color="#e0b154"/>
    </linearGradient>
    <linearGradient id="linear-gradient-2" x2="1.563" y2="0.563" xlink:href="#linear-gradient"/>
  </defs>
  <g id="coin_history_icon" transform="translate(941.862 -6824.998)">
    <path id="Path_2396" data-name="Path 2396" d="M23.95,10.758a10.99,10.99,0,0,0-1.276-4.3A12.149,12.149,0,0,0,15.131.382,12.783,12.783,0,0,0,10.721.05a10.988,10.988,0,0,0-4.3,1.276A12.141,12.141,0,0,0,.35,8.869,10.973,10.973,0,0,0,0,10.984v.188c.031.025.025.063.025.094v.1c-.006.044.013.094-.025.138v.138a.366.366,0,0,1,0,.281v.188a.366.366,0,0,1,0,.281v.138c.038.038.019.088.025.138v.113A.1.1,0,0,1,0,12.86v.188c.05.219.031.444.063.669a11.562,11.562,0,0,0,1.132,3.665,12.048,12.048,0,0,0,3.052,3.859A11.918,11.918,0,0,0,9.457,23.8a15.028,15.028,0,0,0,1.495.2h.188a.127.127,0,0,1,.094-.025h.25a.086.086,0,0,1,.075.025H12.4a.092.092,0,0,1,.075-.025h.175c.044,0,.088-.013.125.025h.138c.244-.044.494-.025.738-.056a11.632,11.632,0,0,0,3.59-1.082,12.218,12.218,0,0,0,6.318-7.531A12.711,12.711,0,0,0,23.95,10.758ZM12.916,21.917c.006-.307,0-.607,0-.913s.006-.594,0-.888a.935.935,0,1,0-1.87.013q-.009.9,0,1.8c0,.144-.044.163-.169.144a10.135,10.135,0,0,1-8.644-7.387,12.007,12.007,0,0,1-.3-1.557c-.025-.163.031-.175.169-.175q.854.009,1.708,0a.937.937,0,0,0,1.013-.932A.947.947,0,0,0,3.8,11.077c-.569,0-1.138-.006-1.708.006-.156,0-.175-.05-.156-.188A10.043,10.043,0,0,1,7.925,2.758a9.693,9.693,0,0,1,2.965-.8c.15-.019.163.031.163.156-.006.544,0,1.095,0,1.639a.945.945,0,1,0,1.876-.013c0-.538.006-1.076,0-1.614,0-.131.013-.188.175-.169a10.156,10.156,0,0,1,8.851,8.3c.031.169.05.338.069.507.038.307.038.307-.281.307H20.153a.94.94,0,1,0,.006,1.876c.575,0,1.157.006,1.733-.006.156,0,.175.044.156.188a10.019,10.019,0,0,1-7.243,8.588,9.914,9.914,0,0,1-1.714.35C12.929,22.092,12.91,22.036,12.916,21.917Z" transform="translate(-941.862 6825)" fill="url(#linear-gradient)"/>
    <path id="Path_2397" data-name="Path 2397" d="M13.117,16.006a.336.336,0,0,0-.25.382A.939.939,0,1,1,11,16.55c-.006-.163.069-.369-.031-.475s-.3-.088-.457-.138c-.281-.087-.563-.175-.844-.281a.935.935,0,1,1,.651-1.751,6.514,6.514,0,0,0,1.72.413.748.748,0,0,0,.45-.081.583.583,0,0,0,.025-1.045,1.328,1.328,0,0,0-.675-.156A2.93,2.93,0,0,1,9.689,12.1,2.448,2.448,0,0,1,10.7,8.188a.434.434,0,0,0,.35-.519.909.909,0,0,1,.844-.944.948.948,0,0,1,1.02.9c.012.181-.081.413.038.538s.325.119.5.175.369.125.544.2a.906.906,0,0,1,.557.782.943.943,0,0,1-1.282.932,5.35,5.35,0,0,0-1.557-.375.666.666,0,0,0-.663.306.536.536,0,0,0,.188.788,1.757,1.757,0,0,0,.851.2A2.685,2.685,0,0,1,14.249,12.3,2.461,2.461,0,0,1,13.117,16.006Z" transform="translate(-941.862 6825)" fill="url(#linear-gradient-2)"/>
  </g>
</svg>
