<svg xmlns="http://www.w3.org/2000/svg" xmlns:xlink="http://www.w3.org/1999/xlink" width="23.998" height="23.972" viewBox="0 0 23.998 23.972">
  <defs>
    <linearGradient id="linear-gradient" y1="1" x2="1" gradientUnits="objectBoundingBox">
      <stop offset="0.005" stop-color="#e49e45"/>
      <stop offset="1" stop-color="#e0b154"/>
    </linearGradient>
    <linearGradient id="linear-gradient-2" x2="0.22" y2="-0.78" xlink:href="#linear-gradient"/>
    <linearGradient id="linear-gradient-3" x2="0.345" y2="-0.655" xlink:href="#linear-gradient"/>
    <linearGradient id="linear-gradient-4" x2="0.272" y2="-0.728" xlink:href="#linear-gradient"/>
    <linearGradient id="linear-gradient-5" x2="0.341" y2="-0.659" xlink:href="#linear-gradient"/>
    <linearGradient id="linear-gradient-6" x2="0.362" y2="-0.638" xlink:href="#linear-gradient"/>
    <linearGradient id="linear-gradient-7" x2="1.523" y2="0.523" xlink:href="#linear-gradient"/>
  </defs>
  <g id="coin_icon" transform="translate(0 -0.997)">
    <path id="Path_2398" data-name="Path 2398" d="M15.737,15.327a7.957,7.957,0,0,0-15.605.226,1.447,1.447,0,0,1-.132.6v.232c.031.025.025.056.025.094V16.5A.1.1,0,0,1,0,16.58v.846c.031.025.025.063.025.094v.012A.086.086,0,0,1,0,17.608V17.8c.063.257.044.526.094.783a7.882,7.882,0,0,0,2.092,3.959,8.043,8.043,0,0,0,3.677,2.186,8.576,8.576,0,0,0,1.541.238h.188a.366.366,0,0,1,.282,0h.282a.1.1,0,0,1,.138,0h.138V24.95c.013-.044.056-.038.088-.038a7.251,7.251,0,0,0,1.272-.188A7.981,7.981,0,0,0,15.737,15.327ZM7.969,23.07a6.086,6.086,0,1,1,6.071-6.089A6.095,6.095,0,0,1,7.969,23.07Z" fill="url(#linear-gradient)"/>
    <path id="Path_2399" data-name="Path 2399" d="M23.38,23.6a14.609,14.609,0,0,1-3.026.94,20.516,20.516,0,0,1-3.082.376c-.044,0-.094-.019-.113.05h-.094a.059.059,0,0,0-.094,0h-.326a.629.629,0,0,0-.263-.025h-.031a2.27,2.27,0,0,0-.545.025h-.05v-.013c-.019-.05-.075-.038-.113-.05a.936.936,0,0,1,.319-1.829,23.19,23.19,0,0,0,2.38-.119,14.828,14.828,0,0,0,4.273-1.053.932.932,0,1,1,.764,1.7Z" fill="url(#linear-gradient-2)"/>
    <path id="Path_2400" data-name="Path 2400" d="M23.129,2.817A5.846,5.846,0,0,0,20.98,1.67,14.925,14.925,0,0,0,16.251,1c-.232,0-.47-.006-.7,0a14.28,14.28,0,0,0-4.072.67A5.489,5.489,0,0,0,9.109,3.03a2.074,2.074,0,0,0-.1,2.9,4.419,4.419,0,0,0,1.754,1.209A12.438,12.438,0,0,0,14.484,8a17.37,17.37,0,0,0,5.632-.345,7.1,7.1,0,0,0,2.825-1.234A2.535,2.535,0,0,0,23.95,4.953,2.152,2.152,0,0,0,23.129,2.817ZM21.789,4.959a4.066,4.066,0,0,1-1.159.6,13.166,13.166,0,0,1-4.116.67,13.769,13.769,0,0,1-4.68-.664,4.122,4.122,0,0,1-1.178-.608c-.407-.319-.414-.495,0-.808a4.8,4.8,0,0,1,1.554-.739,14.815,14.815,0,0,1,5.4-.482,10.959,10.959,0,0,1,3.3.714,3.854,3.854,0,0,1,.877.482C22.221,4.452,22.221,4.627,21.789,4.959Z" fill="url(#linear-gradient-3)"/>
    <path id="Path_2401" data-name="Path 2401" d="M23.374,10.98a15,15,0,0,1-3.37,1,21.514,21.514,0,0,1-3.139.326.946.946,0,0,1,.144-1.873A16.838,16.838,0,0,0,22.045,9.5c.207-.075.407-.163.608-.244a.934.934,0,1,1,.72,1.723Z" fill="url(#linear-gradient-4)"/>
    <path id="Path_2402" data-name="Path 2402" d="M23.4,19.431a13.069,13.069,0,0,1-2.205.752,19.157,19.157,0,0,1-2.926.5.947.947,0,0,1-1.015-.858.929.929,0,0,1,.821-1,16.686,16.686,0,0,0,3.5-.7c.344-.113.683-.25,1.027-.382a1,1,0,0,1,.37-.094.944.944,0,0,1,.958.745A.924.924,0,0,1,23.4,19.431Z" fill="url(#linear-gradient-5)"/>
    <path id="Path_2403" data-name="Path 2403" d="M23.749,14.951a1.035,1.035,0,0,1-.388.288,16.324,16.324,0,0,1-4.348,1.147c-.169.019-.338.038-.451.056a.942.942,0,0,1-1.009-.852.913.913,0,0,1,.746-.99c.739-.119,1.485-.207,2.211-.382a14,14,0,0,0,2.174-.714.9.9,0,0,1,1.1.319A.941.941,0,0,1,23.749,14.951Z" fill="url(#linear-gradient-6)"/>
    <path id="Path_2404" data-name="Path 2404" d="M9.228,20.5a.292.292,0,0,0-.2.288.932.932,0,0,1-.946.883.917.917,0,0,1-.908-.908C7.167,20.627,7.1,20.6,7,20.577a5.488,5.488,0,0,1-1.09-.338.927.927,0,0,1-.551-1.052.939.939,0,0,1,.933-.733,1.125,1.125,0,0,1,.476.113,5.569,5.569,0,0,0,1.316.3.643.643,0,0,0,.345-.044.457.457,0,0,0,.276-.376.409.409,0,0,0-.219-.388.922.922,0,0,0-.514-.125,2.772,2.772,0,0,1-1.842-.7A2.287,2.287,0,0,1,6.91,13.4c.163-.063.257-.113.276-.319a.9.9,0,0,1,.9-.764A.884.884,0,0,1,9,13.091a.428.428,0,0,0,.413.457,1.848,1.848,0,0,1,.395.138.933.933,0,1,1-.639,1.754,4.189,4.189,0,0,0-1.41-.313.564.564,0,0,0-.269.056.416.416,0,0,0-.025.739,1.492,1.492,0,0,0,.7.15,2.467,2.467,0,0,1,2.092,1.215A2.278,2.278,0,0,1,9.228,20.5Z" fill="url(#linear-gradient-7)"/>
  </g>
</svg>
