<svg xmlns="http://www.w3.org/2000/svg" xmlns:xlink="http://www.w3.org/1999/xlink" width="40.823" height="48.058" viewBox="0 0 40.823 48.058">
  <defs>
    <linearGradient id="linear-gradient" x1="1.822" y1="-3.359" x2="-0.099" y2="0.5" gradientUnits="objectBoundingBox">
      <stop offset="0" stop-color="#e59b44"/>
      <stop offset="1" stop-color="#dfb343"/>
    </linearGradient>
  </defs>
  <g id="daily_quiz_icon" transform="translate(-5)">
    <path id="Path_2309" data-name="Path 2309" d="M17.632,36.115a.624.624,0,0,0-.574-.4H12.809A7.9,7.9,0,0,0,5,43.579v3.9a.575.575,0,0,0,.574.574H21.364a.62.62,0,0,0,.574-.8Zm20.383-.344H33.766a.691.691,0,0,0-.574.4L28.885,47.254a.575.575,0,0,0,.574.8H45.249a.575.575,0,0,0,.574-.574v-3.9A7.817,7.817,0,0,0,38.014,35.77Z" fill="url(#linear-gradient)"/>
    <path id="Path_2310" data-name="Path 2310" d="M10.742,18.2H8.388a1.493,1.493,0,1,0,0,2.986h2.354a1.493,1.493,0,1,0,0-2.986ZM25.383,5.282a1.482,1.482,0,0,0,1.493-1.493v-2.3A1.482,1.482,0,0,0,25.383,0a1.435,1.435,0,0,0-1.435,1.493V3.847A1.458,1.458,0,0,0,25.383,5.282ZM14.416,7.751,12.751,6.086a1.462,1.462,0,0,0-2.067,2.067l1.665,1.665a1.474,1.474,0,0,0,1.033.4,1.383,1.383,0,0,0,1.033-.4A1.455,1.455,0,0,0,14.416,7.751ZM25.383,36.057a1.789,1.789,0,0,0-1.78,1.78v8.21a1.78,1.78,0,1,0,3.56,0v-8.21A1.789,1.789,0,0,0,25.383,36.057ZM40.139,6.086a1.455,1.455,0,0,0-2.067,0L36.407,7.751a1.455,1.455,0,0,0,0,2.067,1.53,1.53,0,0,0,2.067,0l1.665-1.665A1.455,1.455,0,0,0,40.139,6.086ZM24.12,7.981c-4.593.517-9.072,4.938-9.589,9.531a11.015,11.015,0,0,0,2.986,8.957,7,7,0,0,1,1.952,4.88,1.666,1.666,0,0,0,1.665,1.665h8.44a1.666,1.666,0,0,0,1.665-1.665,6.868,6.868,0,0,1,1.952-4.823,10.712,10.712,0,0,0,3.1-7.636A10.873,10.873,0,0,0,24.12,7.981ZM26.876,23.2v4.019a1.493,1.493,0,0,1-2.986,0V23.2a3.822,3.822,0,0,1-2.928-3.56,1.493,1.493,0,1,1,2.986,0c0,.4.632.861,1.435.861.861,0,1.435-.459,1.435-.861a1.493,1.493,0,1,1,2.986,0A3.822,3.822,0,0,1,26.876,23.2Zm15.5-5H40.024a1.493,1.493,0,0,0,0,2.986h2.354a1.482,1.482,0,0,0,1.493-1.493A1.448,1.448,0,0,0,42.378,18.2Z" fill="url(#linear-gradient)"/>
  </g>
</svg>
