<svg id="delete_account" xmlns="http://www.w3.org/2000/svg" xmlns:xlink="http://www.w3.org/1999/xlink" width="24.01" height="24" viewBox="0 0 24.01 24">
  <defs>
    <linearGradient id="linear-gradient" y1="1" x2="1" gradientUnits="objectBoundingBox">
      <stop offset="0.005" stop-color="#e49e45"/>
      <stop offset="1" stop-color="#e0b154"/>
    </linearGradient>
  </defs>
  <path id="Path_2441" data-name="Path 2441" d="M-1351.985,1148.341a6.422,6.422,0,0,1-1.224-9.769,6.417,6.417,0,0,1,9.339-.022,6.425,6.425,0,0,1-1.191,9.787c.21.085.409.161.605.245a9.923,9.923,0,0,1,3.46,2.405c.127.138.239.076.359.053a4.791,4.791,0,0,1,5.594,3.65,4.794,4.794,0,0,1-4.18,5.816,4.782,4.782,0,0,1-5.293-4.846,4.679,4.679,0,0,1,1.764-3.633c.045-.037.091-.073.136-.109l.169-.132c-.216-.188-.413-.374-.625-.54a8.775,8.775,0,0,0-11.339.4,8.083,8.083,0,0,0-2.713,5.243c-.121.922-.151,1.857-.2,2.787a.829.829,0,0,1-.8.875.809.809,0,0,1-.805-.888,16.4,16.4,0,0,1,.19-3.46,10.3,10.3,0,0,1,6.52-7.758Zm-1.345-5.386a4.81,4.81,0,0,0,4.783,4.792,4.806,4.806,0,0,0,4.816-4.757,4.8,4.8,0,0,0-4.808-4.84A4.8,4.8,0,0,0-1353.329,1142.955Zm16.8,12.8a3.2,3.2,0,0,0-3.19-3.2,3.2,3.2,0,0,0-3.21,3.208,3.2,3.2,0,0,0,3.228,3.191A3.207,3.207,0,0,0-1336.528,1155.75Z" transform="translate(1358.933 -1136.545)" fill="url(#linear-gradient)"/>
  <path id="Path_2442" data-name="Path 2442" d="M-1076.541,1443.1c.508,0,1.016,0,1.525,0a.807.807,0,0,1,.864.8.808.808,0,0,1-.874.794q-1.525,0-3.049,0a.809.809,0,0,1-.876-.793.808.808,0,0,1,.886-.806C-1077.557,1443.1-1077.049,1443.1-1076.541,1443.1Z" transform="translate(1095.757 -1424.699)" fill="url(#linear-gradient)"/>
</svg>
