<svg id="Group_5" data-name="Group 5" xmlns="http://www.w3.org/2000/svg" xmlns:xlink="http://www.w3.org/1999/xlink" width="994.188" height="856.374" viewBox="0 0 994.188 856.374">
  <defs>
    <clipPath id="clip-path">
      <rect id="Rectangle_4" data-name="Rectangle 4" width="994.188" height="856.374" fill="none"/>
    </clipPath>
  </defs>
  <g id="Group_2" data-name="Group 2">
    <g id="Group_1" data-name="Group 1" clip-path="url(#clip-path)">
      <path id="Path_1" data-name="Path 1" d="M74.391,272.608a166.311,166.311,0,0,1-26.6-20.425A2.759,2.759,0,0,0,44,256.2a171.936,171.936,0,0,0,27.485,21.1,2.759,2.759,0,0,0,2.9-4.693" transform="translate(10.037 58.501)" fill="#ac5e9f"/>
      <path id="Path_2" data-name="Path 2" d="M142.493,289.7a167.621,167.621,0,0,1-33.251-4.438,2.759,2.759,0,0,0-1.273,5.368,173.34,173.34,0,0,0,34.348,4.584c.083,0,.165,0,.247,0a2.716,2.716,0,0,0,.958-.232,2.758,2.758,0,0,0-1.028-5.279" transform="translate(24.627 66.354)" fill="#ac5e9f"/>
      <path id="Path_3" data-name="Path 3" d="M107.781,24.755h0a2.758,2.758,0,0,0,.182-4.952,2.736,2.736,0,0,0-2.1-.211,173.2,173.2,0,0,0-20.128,7.47c-3.927,1.743-7.85,3.66-11.654,5.7l-.217.116a2.759,2.759,0,0,0,2.611,4.86l.213-.115c3.681-1.972,7.479-3.829,11.284-5.517a167.607,167.607,0,0,1,19.486-7.231,2.931,2.931,0,0,0,.322-.12" transform="translate(16.848 4.531)" fill="#ac5e9f"/>
      <path id="Path_4" data-name="Path 4" d="M46.052,61.561a2.759,2.759,0,0,0-4.016-3.784,171.923,171.923,0,0,0-21.09,27.5,2.759,2.759,0,1,0,4.694,2.9A166.324,166.324,0,0,1,46.052,61.561" transform="translate(4.778 13.242)" fill="#ac5e9f"/>
      <path id="Path_5" data-name="Path 5" d="M5.516,156.281a167.683,167.683,0,0,1,4.42-33.253,2.759,2.759,0,0,0-2.049-3.321,2.764,2.764,0,0,0-3.32,2.049A173.271,173.271,0,0,0,0,156.107a2.758,2.758,0,0,0,2.669,2.844c.084,0,.166,0,.249,0a2.758,2.758,0,0,0,2.6-2.668" transform="translate(0 27.835)" fill="#ac5e9f"/>
      <path id="Path_6" data-name="Path 6" d="M23.9,223.633c-1.972-3.682-3.829-7.479-5.517-11.285a167.6,167.6,0,0,1-7.254-19.56,2.758,2.758,0,1,0-5.282,1.59,173.041,173.041,0,0,0,7.493,20.207c1.743,3.929,3.66,7.85,5.7,11.656l.076.143a2.772,2.772,0,0,0,2.595,1.447,2.7,2.7,0,0,0,.953-.229c.064-.028.127-.06.189-.092a2.762,2.762,0,0,0,1.124-3.736Z" transform="translate(1.334 44.399)" fill="#ac5e9f"/>
      <path id="Path_7" data-name="Path 7" d="M178.445,23.713a2.759,2.759,0,0,0,.476-5.44,173.184,173.184,0,0,0-34.353-4.551,2.759,2.759,0,1,0-.17,5.515,167.632,167.632,0,0,1,33.255,4.406,2.787,2.787,0,0,0,.793.07" transform="translate(32.975 3.192)" fill="#ac5e9f"/>
      <path id="Path_8" data-name="Path 8" d="M209.924,272.909c-3.686,1.975-7.484,3.831-11.285,5.517A167.33,167.33,0,0,1,179,285.706a2.773,2.773,0,0,0-1.842,3.434,2.756,2.756,0,0,0,3.437,1.848,173.082,173.082,0,0,0,20.286-7.518c3.927-1.742,7.842-3.656,11.632-5.686l.1-.051a2.71,2.71,0,0,0,1.088-3.715,2.8,2.8,0,0,0-3.77-1.108" transform="translate(41.192 63.421)" fill="#ac5e9f"/>
      <path id="Path_9" data-name="Path 9" d="M278.821,155.647a2.761,2.761,0,0,0-2.846,2.668,167.78,167.78,0,0,1-4.454,33.249,2.763,2.763,0,0,0,2.046,3.322,2.8,2.8,0,0,0,.8.071,2.772,2.772,0,0,0,.96-.234,2.737,2.737,0,0,0,1.565-1.884,173.151,173.151,0,0,0,4.6-34.345,2.762,2.762,0,0,0-2.667-2.847" transform="translate(63.157 36.214)" fill="#ac5e9f"/>
      <path id="Path_10" data-name="Path 10" d="M273.367,123.061a2.768,2.768,0,0,0,2.427.092h0a2.762,2.762,0,0,0,1.521-3.313,172.649,172.649,0,0,0-7.541-20.366c-1.741-3.926-3.657-7.846-5.695-11.651l-.158-.293a2.758,2.758,0,0,0-4.86,2.61l.153.287c1.975,3.687,3.831,7.484,5.517,11.285a167.634,167.634,0,0,1,7.3,19.713,2.74,2.74,0,0,0,1.334,1.637" transform="translate(60.2 20.028)" fill="#ac5e9f"/>
      <path id="Path_11" data-name="Path 11" d="M237.864,59.728a2.759,2.759,0,1,0,3.782-4.017A171.848,171.848,0,0,0,214.14,34.635a2.758,2.758,0,1,0-2.9,4.694,166.422,166.422,0,0,1,26.621,20.4" transform="translate(48.845 7.962)" fill="#ac5e9f"/>
      <path id="Path_12" data-name="Path 12" d="M262.65,224.237a2.764,2.764,0,0,0-3.8.894,166.283,166.283,0,0,1-20.438,26.591,2.759,2.759,0,0,0,4.012,3.788,171.877,171.877,0,0,0,21.117-27.475,2.763,2.763,0,0,0-.894-3.8" transform="translate(55.297 52.077)" fill="#ac5e9f"/>
      <path id="Path_13" data-name="Path 13" d="M717.329,567.736a13.1,13.1,0,1,1,13.1-13.1,13.118,13.118,0,0,1-13.1,13.1m0-20.833a7.729,7.729,0,1,0,7.73,7.73,7.739,7.739,0,0,0-7.73-7.73" transform="translate(163.852 125.997)" fill="#e03c75"/>
      <path id="Path_14" data-name="Path 14" d="M111.563,599.963h-8.048V588.615a2.283,2.283,0,1,0-4.566,0v11.348H90.9a2.283,2.283,0,0,0,0,4.567h8.048v11.348a2.283,2.283,0,0,0,4.566,0V604.53h8.048a2.283,2.283,0,0,0,0-4.567" transform="translate(20.619 136.422)" fill="#e03c75"/>
      <path id="Path_15" data-name="Path 15" d="M707.282,82.1H695.2V65.064a3.427,3.427,0,1,0-6.854,0V82.1H676.27a3.427,3.427,0,1,0,0,6.855h12.079v17.032a3.427,3.427,0,1,0,6.854,0V88.951h12.079a3.427,3.427,0,0,0,0-6.855" transform="translate(156.55 14.341)" fill="#e03c75"/>
      <path id="Path_16" data-name="Path 16" d="M442.537,241.38a299.75,299.75,0,0,0-26.24,17.579,2.564,2.564,0,0,0,1.637,4.614q.128-.006.255-.022a2.576,2.576,0,0,0,1.183-.488,294.524,294.524,0,0,1,25.789-17.277,2.564,2.564,0,1,0-2.624-4.406" transform="translate(96.621 56.078)" fill="#ac5e9f"/>
      <path id="Path_17" data-name="Path 17" d="M435.2,654.206a297.806,297.806,0,0,1-24.926-18.5A2.565,2.565,0,0,0,407,639.663a303.281,303.281,0,0,0,25.358,18.817,2.559,2.559,0,0,0,1.514.425q.128-.006.255-.022a2.565,2.565,0,0,0,1.066-4.677" transform="translate(94.481 147.774)" fill="#ac5e9f"/>
      <path id="Path_18" data-name="Path 18" d="M506.476,215.655a2.541,2.541,0,0,0-1.941-.245c-3.423.932-6.887,1.939-10.3,3-6.633,2.057-13.263,4.365-19.71,6.857a2.565,2.565,0,0,0,1.018,4.955c.086,0,.173-.011.259-.023h0a2.564,2.564,0,0,0,.573-.149c6.338-2.452,12.858-4.72,19.378-6.741,3.347-1.037,6.753-2.028,10.124-2.945a2.565,2.565,0,0,0,.594-4.7" transform="translate(110.028 50.098)" fill="#ac5e9f"/>
      <path id="Path_19" data-name="Path 19" d="M494.659,681.175a298.129,298.129,0,0,1-28.987-11.133,2.564,2.564,0,0,0-2.086,4.685A302.96,302.96,0,0,0,493.07,686.05a2.5,2.5,0,0,0,.89.126,2.244,2.244,0,0,0,.256-.022,2.58,2.58,0,0,0,2.087-1.748,2.565,2.565,0,0,0-1.644-3.231" transform="translate(107.509 155.847)" fill="#ac5e9f"/>
      <path id="Path_20" data-name="Path 20" d="M391.279,282.17a2.521,2.521,0,0,0-1.792.8A302.357,302.357,0,0,0,369,306.991a2.565,2.565,0,0,0,2.129,4.122c.086,0,.173-.011.26-.022a2.553,2.553,0,0,0,1.683-.981A296.982,296.982,0,0,1,393.21,286.5a2.565,2.565,0,0,0-1.93-4.328" transform="translate(85.732 65.652)" fill="#ac5e9f"/>
      <path id="Path_21" data-name="Path 21" d="M352.8,335.983a2.564,2.564,0,0,0-3.465,1.067A303.446,303.446,0,0,0,336.046,365.7a2.563,2.563,0,0,0,2.478,3.518,2.181,2.181,0,0,0,.253-.022,2.569,2.569,0,0,0,2.028-1.584,298.427,298.427,0,0,1,13.064-28.165,2.565,2.565,0,0,0-1.069-3.466" transform="translate(78.145 78.104)" fill="#ac5e9f"/>
      <path id="Path_22" data-name="Path 22" d="M326.239,488.313c-1.04-7.492-1.8-15.115-2.258-22.658a2.566,2.566,0,0,0-2.7-2.4,2.5,2.5,0,0,0-1.765.835,2.6,2.6,0,0,0-.656,1.881c.466,7.672,1.239,15.427,2.3,23.052.385,2.77.815,5.572,1.276,8.328a2.551,2.551,0,0,0,2.619,2.139c.086,0,.174-.011.263-.023h0c.026,0,.052-.007.068-.011a2.568,2.568,0,0,0,2.105-2.952c-.455-2.712-.878-5.466-1.255-8.186" transform="translate(74.189 107.784)" fill="#ac5e9f"/>
      <path id="Path_23" data-name="Path 23" d="M329.6,398.737a2.565,2.565,0,0,0-4.663.841,301.124,301.124,0,0,0-5.082,31.183,2.563,2.563,0,0,0,2.272,2.826,2.63,2.63,0,0,0,.381.014,2.114,2.114,0,0,0,.25-.022,2.561,2.561,0,0,0,2.2-2.262,295.762,295.762,0,0,1,4.995-30.648,2.545,2.545,0,0,0-.348-1.932" transform="translate(74.417 92.5)" fill="#ac5e9f"/>
      <path id="Path_24" data-name="Path 24" d="M559.187,691.124a295.106,295.106,0,0,1-30.92-2.893,2.564,2.564,0,0,0-.746,5.074,300.052,300.052,0,0,0,31.458,2.944q.1,0,.2,0,.128-.006.255-.022a2.564,2.564,0,0,0-.25-5.1" transform="translate(122.229 160.124)" fill="#ac5e9f"/>
      <path id="Path_25" data-name="Path 25" d="M366.181,587.724a2.564,2.564,0,1,0-4.216,2.92A299.51,299.51,0,0,0,381.3,615.62a2.553,2.553,0,0,0,2.038.889c.085,0,.171-.011.258-.023a2.565,2.565,0,0,0,1.588-4.215,294.381,294.381,0,0,1-19-24.547" transform="translate(84.112 136.489)" fill="#ac5e9f"/>
      <path id="Path_26" data-name="Path 26" d="M336.753,529.58a2.564,2.564,0,1,0-4.848,1.673,304.009,304.009,0,0,0,11.842,29.273,2.55,2.55,0,0,0,2.416,1.479c.086,0,.173-.011.26-.023a2.565,2.565,0,0,0,1.971-3.625,298.708,298.708,0,0,1-11.641-28.777" transform="translate(77.191 122.815)" fill="#ac5e9f"/>
      <path id="Path_27" data-name="Path 27" d="M735.552,621.727a295.385,295.385,0,0,1-23.18,20.621,2.564,2.564,0,0,0,1.7,4.565q.126-.005.251-.022a2.579,2.579,0,0,0,1.247-.536,300.7,300.7,0,0,0,23.585-20.981,2.564,2.564,0,0,0-3.607-3.646" transform="translate(165.524 144.486)" fill="#ac5e9f"/>
      <path id="Path_28" data-name="Path 28" d="M783.882,345.685a300.246,300.246,0,0,0-15.744-27.378,2.564,2.564,0,1,0-4.3,2.787A295.205,295.205,0,0,1,779.308,348a2.549,2.549,0,0,0,2.639,1.381h0a2.517,2.517,0,0,0,.806-.253,2.568,2.568,0,0,0,1.128-3.447" transform="translate(177.625 73.789)" fill="#ac5e9f"/>
      <path id="Path_29" data-name="Path 29" d="M800.013,507.693a2.568,2.568,0,0,0-3.111,1.861,297.482,297.482,0,0,1-9.148,29.673,2.564,2.564,0,0,0,2.509,3.445c.084,0,.168-.011.25-.022h0a2.566,2.566,0,0,0,2.056-1.658,302.71,302.71,0,0,0,9.3-30.187,2.565,2.565,0,0,0-1.861-3.112" transform="translate(183.251 118.107)" fill="#ac5e9f"/>
      <path id="Path_30" data-name="Path 30" d="M804.911,442.124H804.9a2.575,2.575,0,0,0-2.473,2.635,294.191,294.191,0,0,1-.772,31.046,2.562,2.562,0,0,0,2.358,2.756,2.681,2.681,0,0,0,.3.006c.085,0,.17-.011.254-.022a2.578,2.578,0,0,0,2.2-2.341,299.462,299.462,0,0,0,.786-31.59,2.569,2.569,0,0,0-2.64-2.491" transform="translate(186.519 102.869)" fill="#ac5e9f"/>
      <path id="Path_31" data-name="Path 31" d="M570.859,206.821a299.7,299.7,0,0,0-31.558,1.423,2.521,2.521,0,0,0-1.733.907,2.569,2.569,0,0,0,2.07,4.208c.051,0,.1-.006.154-.011a294.819,294.819,0,0,1,31.028-1.4,2.525,2.525,0,0,0,.373-.023,2.565,2.565,0,0,0-.334-5.1" transform="translate(124.939 48.119)" fill="#ac5e9f"/>
      <path id="Path_32" data-name="Path 32" d="M802.111,412.678h0c.051-.007.1-.016.148-.025a2.568,2.568,0,0,0,2.012-3.016,305.669,305.669,0,0,0-7.782-30.616l-.133-.427a2.564,2.564,0,1,0-4.9,1.524l.132.425a300.415,300.415,0,0,1,7.65,30.1,2.567,2.567,0,0,0,2.611,2.061,2.251,2.251,0,0,0,.255-.022" transform="translate(184.123 87.669)" fill="#ac5e9f"/>
      <path id="Path_33" data-name="Path 33" d="M777.508,569.068a2.569,2.569,0,0,0-3.5.957,298.09,298.09,0,0,1-16.772,26.121,2.565,2.565,0,0,0,2.177,4.059c.085,0,.171-.011.258-.023a2.569,2.569,0,0,0,1.729-1.043,303.626,303.626,0,0,0,17.061-26.572,2.565,2.565,0,0,0-.957-3.5" transform="translate(176.075 132.327)" fill="#ac5e9f"/>
      <path id="Path_34" data-name="Path 34" d="M724.647,267.931a2.564,2.564,0,1,0-3.387,3.851,295.748,295.748,0,0,1,22.187,21.693,2.55,2.55,0,0,0,2.241.8A2.564,2.564,0,0,0,747.22,290a301.522,301.522,0,0,0-22.573-22.07" transform="translate(167.614 62.191)" fill="#ac5e9f"/>
      <path id="Path_35" data-name="Path 35" d="M623.99,684.255a297.412,297.412,0,0,1-30.564,5.606,2.564,2.564,0,0,0,.45,5.1,2.144,2.144,0,0,0,.232-.02q1.355-.176,2.712-.364c9.474-1.315,19.015-3.111,28.359-5.336a2.564,2.564,0,0,0-1.188-4.989" transform="translate(137.558 159.19)" fill="#ac5e9f"/>
      <path id="Path_36" data-name="Path 36" d="M636.591,217.8a301.411,301.411,0,0,0-30.761-7.191,2.564,2.564,0,1,0-.9,5.048,296.437,296.437,0,0,1,30.236,7.069,2.587,2.587,0,0,0,.811.1q.128-.006.255-.022a2.565,2.565,0,0,0,.362-5" transform="translate(140.257 48.994)" fill="#ac5e9f"/>
      <path id="Path_37" data-name="Path 37" d="M696.851,246.339a303.57,303.57,0,0,0-27.687-15.19,2.564,2.564,0,1,0-2.229,4.618A298.469,298.469,0,0,1,694.152,250.7a2.58,2.58,0,0,0,1.448.382,2.507,2.507,0,0,0,.253-.023,2.564,2.564,0,0,0,1-4.72" transform="translate(154.838 53.722)" fill="#ac5e9f"/>
      <path id="Path_38" data-name="Path 38" d="M684.291,660.76a295.885,295.885,0,0,1-27.921,13.563,2.563,2.563,0,0,0,1.35,4.9h0a2.57,2.57,0,0,0,.645-.177,301.8,301.8,0,0,0,28.407-13.8,2.565,2.565,0,0,0-2.481-4.489" transform="translate(152.353 153.665)" fill="#ac5e9f"/>
      <rect id="Rectangle_1" data-name="Rectangle 1" width="34.803" height="350.263" transform="translate(477.397 401.247)" fill="#e03c75"/>
      <rect id="Rectangle_2" data-name="Rectangle 2" width="34.941" height="12.11" transform="translate(477.259 401.378)" fill="#551948"/>
      <path id="Path_39" data-name="Path 39" d="M642.752,118.013V284.908L524.74,402.92H357.845L239.833,284.908V118.013L357.845,0H524.74Z" transform="translate(55.802 0)" fill="#e03c75"/>
      <path id="Path_40" data-name="Path 40" d="M635.381,107.823V274.718L517.369,392.73H350.474l-78.961-78.961C568.275,357.5,571.353,43.794,571.353,43.794Z" transform="translate(63.173 10.19)" fill="#551948"/>
      <path id="Path_41" data-name="Path 41" d="M620.477,163.434S563.743,374.092,335.57,364.893H502.465L620.477,246.882Z" transform="translate(78.077 38.026)" fill="#551948"/>
      <path id="Path_42" data-name="Path 42" d="M619.475,122.427V273.1L512.933,379.643H362.26L255.718,273.1V122.427L362.26,15.885H512.933Z" transform="translate(59.498 3.696)" fill="none" stroke="#fff" stroke-miterlimit="10" stroke-width="12"/>
      <rect id="Rectangle_3" data-name="Rectangle 3" width="13.974" height="350.263" transform="translate(498.227 401.247)" fill="#551948"/>
    </g>
  </g>
  <text id="OPPS" transform="translate(365.836 248.036)" fill="#fff" font-size="112" font-family="PoetsenOne-Regular, Poetsen One"><tspan x="0" y="0">OPPS</tspan></text>
  <g id="Group_4" data-name="Group 4">
    <g id="Group_3" data-name="Group 3" clip-path="url(#clip-path)">
      <path id="Path_43" data-name="Path 43" d="M710.93,621.715H191.237a5.849,5.849,0,0,1-5.849-5.849v-1.234a5.849,5.849,0,0,1,5.849-5.849H710.93a5.848,5.848,0,0,1,5.849,5.849v1.234a5.849,5.849,0,0,1-5.849,5.849" transform="translate(43.134 141.646)" fill="#3f1239"/>
      <path id="Path_44" data-name="Path 44" d="M215.5,621.715H131.7a6.466,6.466,0,1,1,0-12.932h83.8a6.466,6.466,0,1,1,0,12.932" transform="translate(29.138 141.646)" fill="#3f1239"/>
      <path id="Path_45" data-name="Path 45" d="M117.543,621.715H28.256a5.849,5.849,0,0,1-5.85-5.849v-1.234a5.849,5.849,0,0,1,5.85-5.849h89.287a5.848,5.848,0,0,1,5.849,5.849v1.234a5.849,5.849,0,0,1-5.849,5.849" transform="translate(5.213 141.646)" fill="#3f1239"/>
      <path id="Path_46" data-name="Path 46" d="M717.542,621.715H644.059a5.85,5.85,0,0,1-5.849-5.849v-1.234a5.849,5.849,0,0,1,5.849-5.849h73.483a5.848,5.848,0,0,1,5.849,5.849v1.234a5.849,5.849,0,0,1-5.849,5.849" transform="translate(148.492 141.646)" fill="#3f1239"/>
      <path id="Path_47" data-name="Path 47" d="M790.465,621.715H735.557a6.466,6.466,0,1,1,0-12.932h54.908a6.466,6.466,0,1,1,0,12.932" transform="translate(169.638 141.646)" fill="#3f1239"/>
      <path id="Path_48" data-name="Path 48" d="M380.337,641.043H197.247l3.331-12.06,6.506-23.55,3.94-14.26,5.808-21.023,11.2-40.526,5.808-21.023,40.831-147.8h28.247l14.965,54.166L343.746,508.6l5.808,21.023,11.2,40.526,5.808,21.023,10.446,37.81Z" transform="translate(45.894 83.948)" fill="#e03c75"/>
      <path id="Path_49" data-name="Path 49" d="M380.337,631.516H197.247l3.331-12.06,6.506-23.55c127.585-7.537,110.8-190.464,110.8-190.464l59.126,214.014Z" transform="translate(45.893 94.334)" fill="#7b2167"/>
      <rect id="Rectangle_5" data-name="Rectangle 5" width="258.013" height="24.531" transform="translate(205.678 725.85)" fill="#e03c75"/>
      <path id="Path_50" data-name="Path 50" d="M380.337,591.121H197.247l3.331-12.06H377.006Z" transform="translate(45.894 134.73)" fill="#3f1239"/>
      <path id="Path_51" data-name="Path 51" d="M339.078,498.455s-3.836,80.917-96.8,99.426l124.254-.067Z" transform="translate(56.37 115.976)" fill="#551948"/>
      <path id="Path_52" data-name="Path 52" d="M343.745,502.423H222.218l5.808-21.023h109.91Z" transform="translate(51.704 112.007)" fill="#fff"/>
      <path id="Path_53" data-name="Path 53" d="M363.96,552.356H208.423l5.808-21.023h143.92Z" transform="translate(48.494 123.625)" fill="#fff"/>
      <path id="Path_54" data-name="Path 54" d="M358.119,588.844s-34.2,25.819-160.872,24.531H417.8V588.844Z" transform="translate(45.893 137.006)" fill="#551948"/>
    </g>
  </g>
</svg>
