<svg xmlns="http://www.w3.org/2000/svg" xmlns:xlink="http://www.w3.org/1999/xlink" width="47.997" height="44.934" viewBox="0 0 47.997 44.934">
  <defs>
    <linearGradient id="linear-gradient" x1="1.822" y1="-3.359" x2="-0.099" y2="0.5" gradientUnits="objectBoundingBox">
      <stop offset="0" stop-color="#e59b44"/>
      <stop offset="1" stop-color="#dfb343"/>
    </linearGradient>
  </defs>
  <g id="fun_icon" transform="translate(-0.986 -2)">
    <path id="Path_2313" data-name="Path 2313" d="M29.765,2.173A4.61,4.61,0,1,0,33,7.834,4.594,4.594,0,0,0,29.765,2.173Z" fill="url(#linear-gradient)"/>
    <path id="Path_2314" data-name="Path 2314" d="M7.758,24.758a3.389,3.389,0,0,0-2.426-4.217,3.44,3.44,0,0,0-1.791,6.643A3.507,3.507,0,0,0,7.758,24.758ZM20.35,45.264A15.516,15.516,0,0,0,42.877,32.44a82.6,82.6,0,0,1-10.744,7.22A85.823,85.823,0,0,1,20.35,45.264ZM48.538,17.885c-1.733-2.946-7.278-2.022-13.285.115A15.5,15.5,0,0,0,11.859,31.17c-3.7,3-6.527,6.007-7.162,8.433a3.564,3.564,0,0,0,.289,2.83c.751,1.328,2.31,1.848,4.332,1.848,5.718,0,15.191-4.332,21.141-7.682,8.26-4.621,17.1-11.321,18.368-15.885A3.563,3.563,0,0,0,48.538,17.885ZM7.931,40.7c0-.809,1.444-2.83,4.39-5.43a15.581,15.581,0,0,0,1.56,3.812c.173.289.347.52.52.809C10.935,40.931,8.625,41.1,7.931,40.7Zm14.9-17.213a9.033,9.033,0,0,0-4.563,7.336,1.447,1.447,0,0,1-1.444,1.329h-.115a1.417,1.417,0,0,1-1.329-1.5,11.953,11.953,0,0,1,6.007-9.588,1.425,1.425,0,0,1,1.964.52A1.372,1.372,0,0,1,22.834,23.487Zm18.6,1.329a6.592,6.592,0,0,0-.578-1.1A15.855,15.855,0,0,0,38.487,20.6c3.812-1.155,6.354-1.386,7.047-.924C45.534,20.426,44.148,22.332,41.433,24.816Z" fill="url(#linear-gradient)"/>
  </g>
</svg>
