<svg xmlns="http://www.w3.org/2000/svg" xmlns:xlink="http://www.w3.org/1999/xlink" width="45.214" height="48" viewBox="0 0 45.214 48">
  <defs>
    <linearGradient id="linear-gradient" x1="1.822" y1="-3.359" x2="-0.099" y2="0.5" gradientUnits="objectBoundingBox">
      <stop offset="0" stop-color="#e59b44"/>
      <stop offset="1" stop-color="#dfb343"/>
    </linearGradient>
  </defs>
  <g id="group_battle_icon" transform="translate(-2.348)">
    <path id="Path_2315" data-name="Path 2315" d="M47.521,25.665,45.97,17.34a4.065,4.065,0,0,0-4.019-3.33H38.506a4.065,4.065,0,0,0-4.019,3.33,6.058,6.058,0,0,1,.287,1.091l1.895,10.048a5.083,5.083,0,0,1-.517,3.445v.057l.632,7.694a2.055,2.055,0,0,0,2.01,1.895h2.756a1.974,1.974,0,0,0,2.01-1.895l.632-7.694A2.828,2.828,0,0,1,44.535,31l2.584-3.732A1.872,1.872,0,0,0,47.521,25.665ZM9.8,11.081A4.823,4.823,0,1,0,4.975,6.258,4.852,4.852,0,0,0,9.8,11.081Zm30.6,0a4.823,4.823,0,1,0-4.823-4.823A4.779,4.779,0,0,0,40.4,11.081ZM11.348,14.009H7.9a4.065,4.065,0,0,0-4.019,3.33L2.391,25.665a1.91,1.91,0,0,0,.345,1.55l2.526,3.732a1.559,1.559,0,0,1,.344.976l.632,7.694a2.055,2.055,0,0,0,2.01,1.895H11a1.974,1.974,0,0,0,2.01-1.895l.632-7.694v-.057a5.5,5.5,0,0,1-.517-3.445l1.895-10.048a10.38,10.38,0,0,1,.287-1.091A3.964,3.964,0,0,0,11.348,14.009Z" fill="url(#linear-gradient)"/>
    <path id="Path_2316" data-name="Path 2316" d="M25.128,11.483a5.742,5.742,0,1,0-5.742-5.742A5.686,5.686,0,0,0,25.128,11.483ZM33.683,29,31.788,18.947a4.971,4.971,0,0,0-4.823-4.019H22.889a4.915,4.915,0,0,0-4.823,4.019L16.171,29a2.326,2.326,0,0,0,.4,1.837l3.1,4.479a2.165,2.165,0,0,1,.4,1.206l.746,9.244A2.435,2.435,0,0,0,23.233,48h3.33a2.4,2.4,0,0,0,2.412-2.239l.746-9.244a3,3,0,0,1,.4-1.206l3.1-4.479A2.415,2.415,0,0,0,33.683,29Z" fill="url(#linear-gradient)"/>
  </g>
</svg>
