<svg xmlns="http://www.w3.org/2000/svg" xmlns:xlink="http://www.w3.org/1999/xlink" width="47.971" height="47.01" viewBox="0 0 47.971 47.01">
  <defs>
    <linearGradient id="linear-gradient" x1="1.822" y1="-3.359" x2="-0.099" y2="0.5" gradientUnits="objectBoundingBox">
      <stop offset="0" stop-color="#e59b44"/>
      <stop offset="1" stop-color="#dfb343"/>
    </linearGradient>
  </defs>
  <g id="guess_icon" transform="translate(-1)">
    <path id="Path_2317" data-name="Path 2317" d="M38.823,11.2a9.638,9.638,0,0,0-6.89-2.871,9.737,9.737,0,0,0-6.89,2.871,1.746,1.746,0,0,0,2.469,2.469,6.238,6.238,0,0,1,8.842,0,1.665,1.665,0,0,0,2.411,0A1.686,1.686,0,0,0,38.823,11.2Z" fill="url(#linear-gradient)"/>
    <path id="Path_2318" data-name="Path 2318" d="M43.933,5.053A17.286,17.286,0,0,0,17.292,26.813l-3.158,3.158-.517-.459a.661.661,0,0,0-.976,0L1.388,40.766a1.423,1.423,0,0,0,0,1.952l3.9,3.9a1.423,1.423,0,0,0,1.952,0L18.5,35.368a.661.661,0,0,0,0-.976l-.517-.517,3.043-3.043a17.34,17.34,0,0,0,22.909-1.378A17.292,17.292,0,0,0,43.933,5.053Zm-3.9,20.555a11.77,11.77,0,0,1-20.1-8.325,11.77,11.77,0,1,1,23.541,0A11.875,11.875,0,0,1,40.029,25.608Z" fill="url(#linear-gradient)"/>
  </g>
</svg>
