<svg id="invite_friends" xmlns="http://www.w3.org/2000/svg" xmlns:xlink="http://www.w3.org/1999/xlink" width="24.029" height="23.987" viewBox="0 0 24.029 23.987">
  <defs>
    <linearGradient id="linear-gradient" y1="1" x2="1" gradientUnits="objectBoundingBox">
      <stop offset="0.005" stop-color="#e49e45"/>
      <stop offset="1" stop-color="#e0b154"/>
    </linearGradient>
  </defs>
  <path id="Path_2443" data-name="Path 2443" d="M-1354.3-248.022a2.48,2.48,0,0,1-2.318-1.448,3.045,3.045,0,0,1-.226-.625c-.027-.1-.055-.2-.087-.292v-.63a7.9,7.9,0,0,1,1.1-2.537,9.127,9.127,0,0,1,4.208-3.473l.164-.068.26-.107-.129-.129a4.7,4.7,0,0,1-1.453-4.211,4.569,4.569,0,0,1,2.01-3.162,4.62,4.62,0,0,1,2.641-.811,4.7,4.7,0,0,1,4.37,2.9l.052.125,2.278-1.239-.115-.115a4.67,4.67,0,0,1-1.389-4.4,4.434,4.434,0,0,1,1.681-2.731A4.778,4.778,0,0,1-1338.3-272a4.626,4.626,0,0,1,3.333,1.4,4.781,4.781,0,0,1,1.344,3.412,4.767,4.767,0,0,1-1.516,3.381l-.129.122.161.075c.079.037.158.073.236.108.174.078.338.152.5.239.339.186.7.389,1.052.618a.9.9,0,0,1,.4.559.807.807,0,0,1-.124.61.791.791,0,0,1-.668.369.917.917,0,0,1-.5-.156,7.225,7.225,0,0,0-2.45-1.085,8.424,8.424,0,0,0-1.766-.2,7.107,7.107,0,0,0-4.881,1.962.5.5,0,0,0-.153.3,4.69,4.69,0,0,1-1.426,2.879.476.476,0,0,0-.054.066l-.026.035-.093.12.138.064.223.1c.16.071.311.137.456.217.338.185.729.4,1.1.638a.817.817,0,0,1,.3,1.167.79.79,0,0,1-.673.379.929.929,0,0,1-.507-.16,7.06,7.06,0,0,0-2.475-1.09,8.7,8.7,0,0,0-1.743-.184,7.386,7.386,0,0,0-5.245,2.213,6.805,6.805,0,0,0-1.683,2.667,1.169,1.169,0,0,0,.1,1.088,1.159,1.159,0,0,0,.986.45h8.035a.838.838,0,0,1,.9.644.781.781,0,0,1-.142.672.763.763,0,0,1-.6.291h-4.818c-1.394,0-2.529,0-3.572,0Zm6.162-15.839a3.065,3.065,0,0,0-3.06,3.045,3.067,3.067,0,0,0,3.049,3.073h.016a3.062,3.062,0,0,0,3.053-3.051,3.062,3.062,0,0,0-3.047-3.067Zm9.812-6.491a3.065,3.065,0,0,0-3.06,3.051,3.063,3.063,0,0,0,3.051,3.068h.008a3.064,3.064,0,0,0,3.059-3.051,3.039,3.039,0,0,0-.893-2.163,3.037,3.037,0,0,0-2.158-.9Z" transform="translate(1356.933 272)" fill="url(#linear-gradient)"/>
  <path id="Path_2444" data-name="Path 2444" d="M-1100.975-11.8a1.96,1.96,0,0,1-.2-.011.788.788,0,0,1-.607-.764c-.008-.551-.007-1.112-.005-1.654q0-.345,0-.69v-.4h-2.62a.84.84,0,0,1-.932-.823.779.779,0,0,1,.222-.567.975.975,0,0,1,.7-.263h2.63v-1.069c0-.525,0-1.049,0-1.574a.836.836,0,0,1,.82-.91h.007a.831.831,0,0,1,.825.919c0,.577,0,1.153,0,1.74v.894h2.64a.83.83,0,0,1,.914.815.784.784,0,0,1-.222.573.965.965,0,0,1-.694.264l-1,0h-1.643v.725c0,.622,0,1.23,0,1.839,0,.023,0,.045,0,.068a.913.913,0,0,1-.015.232A.75.75,0,0,1-1100.975-11.8Z" transform="translate(1120.604 35.785)" fill="url(#linear-gradient)"/>
</svg>
