<svg id="language_icon" xmlns="http://www.w3.org/2000/svg" xmlns:xlink="http://www.w3.org/1999/xlink" width="24" height="24.006" viewBox="0 0 24 24.006">
  <defs>
    <linearGradient id="linear-gradient" y1="1" x2="1" gradientUnits="objectBoundingBox">
      <stop offset="0.005" stop-color="#e49e45"/>
      <stop offset="1" stop-color="#e0b154"/>
    </linearGradient>
    <linearGradient id="linear-gradient-2" x1="0" x2="0.999" y2="-0.001" xlink:href="#linear-gradient"/>
    <linearGradient id="linear-gradient-3" x1="0" x2="1" y2="0" xlink:href="#linear-gradient"/>
    <linearGradient id="linear-gradient-4" x1="0" x2="1" y2="0" xlink:href="#linear-gradient"/>
  </defs>
  <path id="Path_2409" data-name="Path 2409" d="M24,13.175v6.7a4.286,4.286,0,0,1-.833,2.193A4.591,4.591,0,0,1,20.4,23.931c-.188.044-.382.025-.57.063-.019.006-.031.006-.05.013H13.125c-.326-.119-.67-.157-1-.269A4.694,4.694,0,0,1,9,19.4C9,18.763,9,18.124,9,17.479a.937.937,0,1,1,1.873.006c.006.608,0,1.215,0,1.829a2.809,2.809,0,0,0,2.807,2.819c1.873.006,3.753.006,5.626,0a2.808,2.808,0,0,0,2.813-2.813q.009-2.81,0-5.626A2.818,2.818,0,0,0,19.3,10.882H17.5a.939.939,0,1,1-.006-1.873c.8.013,1.61-.05,2.412.038a4.692,4.692,0,0,1,4.047,4.009C23.962,13.1,23.944,13.15,24,13.175Z" fill="url(#linear-gradient)"/>
  <path id="Path_2410" data-name="Path 2410" d="M15,4.742a4.419,4.419,0,0,0-.063-.814A4.7,4.7,0,0,0,10.249,0H4.761A4.69,4.69,0,0,0,0,4.761v5.482A4.683,4.683,0,0,0,4.767,15H10.23A4.7,4.7,0,0,0,15,10.268c.006-.927,0-1.861,0-2.788C15,6.572,15,5.657,15,4.742Zm-1.879,5.519a2.812,2.812,0,0,1-2.857,2.869H4.742a2.817,2.817,0,0,1-2.863-2.869V4.73a2.8,2.8,0,0,1,2.844-2.85H10.28a2.81,2.81,0,0,1,2.851,2.85Q13.131,7.493,13.125,10.262Z" fill="url(#linear-gradient-2)"/>
  <path id="Path_2411" data-name="Path 2411" d="M20.323,19.051q-1.391-2.772-2.775-5.557a.907.907,0,0,0-.852-.551.929.929,0,0,0-.871.564q-1.381,2.763-2.763,5.532a.936.936,0,1,0,1.673.833c.2-.388.395-.777.583-1.171a.212.212,0,0,1,.226-.144q1.137.009,2.274,0a.232.232,0,0,1,.244.157c.2.413.4.827.62,1.234a.907.907,0,0,0,1.052.457.93.93,0,0,0,.708-.908A.945.945,0,0,0,20.323,19.051Zm-3.984-2.374c.113-.226.219-.445.345-.708.132.263.238.47.351.708Z" fill="url(#linear-gradient-3)"/>
  <path id="Path_2412" data-name="Path 2412" d="M11.251,4.6a.951.951,0,0,0-1.021-.858H4.724a.939.939,0,0,0-.113,1.873c.1.013.15.031.163.144A6.823,6.823,0,0,0,6.052,8.839c.075.1.069.15-.044.207-.257.132-.507.276-.764.407a.94.94,0,1,0,.839,1.679,7.637,7.637,0,0,0,1.3-.746.17.17,0,0,1,.244,0,8.013,8.013,0,0,0,1.272.739.94.94,0,1,0,.833-1.679c-.244-.125-.476-.263-.72-.382-.113-.056-.15-.1-.056-.219A6.824,6.824,0,0,0,10.23,5.77c.012-.088.044-.125.144-.138A.949.949,0,0,0,11.251,4.6ZM8.332,5.751A5.415,5.415,0,0,1,7.593,7.53c-.088.138-.125.075-.188-.019a5.154,5.154,0,0,1-.752-1.879H8.238C8.338,5.626,8.351,5.657,8.332,5.751Z" fill="url(#linear-gradient-4)"/>
</svg>
