<?xml version="1.0" standalone="no"?>
<!DOCTYPE svg PUBLIC "-//W3C//DTD SVG 20010904//EN"
 "http://www.w3.org/TR/2001/REC-SVG-20010904/DTD/svg10.dtd">
<svg version="1.0" xmlns="http://www.w3.org/2000/svg"
 width="320.000000pt" height="320.000000pt" viewBox="0 0 320.000000 320.000000"
 preserveAspectRatio="xMidYMid meet">

<g transform="translate(0.000000,320.000000) scale(0.100000,-0.100000)"
fill="#000000" stroke="none">
<path d="M1574 2911 c-64 -39 -64 -39 -64 -324 0 -222 2 -263 16 -287 36 -59
119 -78 182 -40 57 35 62 62 62 326 0 224 -1 238 -22 275 -36 65 -113 87 -174
50z"/>
<path d="M942 2733 c-18 -9 -40 -29 -48 -44 -30 -59 -20 -86 102 -301 64 -112
127 -213 140 -225 76 -69 196 -11 196 94 0 50 -224 439 -271 470 -40 27 -74
29 -119 6z"/>
<path d="M2246 2628 c-69 -109 -213 -374 -209 -385 15 -40 43 -7 148 174 118
202 130 233 96 233 -11 0 -27 -10 -35 -22z"/>
<path d="M454 2236 c-45 -45 -48 -101 -6 -145 35 -38 406 -251 446 -257 71
-11 139 73 116 142 -15 44 -35 59 -261 188 -215 123 -238 129 -295 72z"/>
<path d="M2549 2089 c-107 -61 -199 -117 -206 -126 -15 -20 0 -53 25 -53 9 0
105 51 212 114 201 116 227 141 182 165 -16 9 -52 -8 -213 -100z"/>
<path d="M289 1591 c-38 -39 -40 -97 -5 -138 l24 -28 267 0 267 0 24 28 c35
41 33 99 -5 138 l-29 29 -257 0 -257 0 -29 -29z"/>
<path d="M2458 1559 c-21 -12 -24 -49 -6 -67 17 -17 479 -17 496 0 17 17 15
42 -6 61 -16 15 -48 17 -243 17 -133 0 -231 -5 -241 -11z"/>
<path d="M845 1172 c-16 -10 -106 -63 -200 -116 -93 -54 -178 -107 -187 -118
-10 -11 -18 -36 -18 -55 0 -44 45 -93 87 -93 28 0 395 202 440 243 30 27 38
69 19 106 -28 53 -85 67 -141 33z"/>
<path d="M2332 1138 c-18 -18 -15 -63 6 -80 36 -32 388 -228 408 -228 11 0 29
9 39 20 38 42 15 63 -195 186 -189 110 -233 127 -258 102z"/>
<path d="M1167 858 c-9 -7 -68 -103 -132 -212 -126 -219 -135 -247 -90 -291
13 -14 33 -25 44 -25 51 0 71 23 178 209 135 235 136 237 129 266 -14 55 -87
84 -129 53z"/>
<path d="M2017 832 c-10 -10 -17 -30 -17 -44 0 -26 195 -374 233 -415 11 -13
31 -23 44 -23 29 0 63 33 63 62 0 21 -179 342 -227 406 -28 37 -70 43 -96 14z"/>
<path d="M1590 730 c-11 -11 -22 -30 -25 -43 -3 -12 -5 -125 -3 -251 3 -226 3
-228 27 -247 32 -26 67 -24 96 6 l25 24 0 241 0 241 -25 24 c-29 30 -68 32
-95 5z"/>
</g>
</svg>
