<svg xmlns="http://www.w3.org/2000/svg" xmlns:xlink="http://www.w3.org/1999/xlink" width="23.994" height="24.002" viewBox="0 0 23.994 24.002">
  <defs>
    <linearGradient id="linear-gradient" y1="1" x2="1.166" y2="0.166" gradientUnits="objectBoundingBox">
      <stop offset="0.005" stop-color="#e49e45"/>
      <stop offset="1" stop-color="#e0b154"/>
    </linearGradient>
    <linearGradient id="linear-gradient-2" x1="0" x2="1.572" y2="0.572" xlink:href="#linear-gradient"/>
    <linearGradient id="linear-gradient-3" x1="0" x2="0.032" y2="-0.968" xlink:href="#linear-gradient"/>
  </defs>
  <g id="logout_icon" transform="translate(-0.006 -0.998)">
    <path id="Path_2413" data-name="Path 2413" d="M20.266,21.022a.907.907,0,0,1-.307.946A11.942,11.942,0,0,1,16.99,23.9a11.813,11.813,0,0,1-4.053,1.046c-.038,0-.075-.006-.088.038V25h-.138a.092.092,0,0,0-.075-.025h-.219c-.044,0-.088-.012-.125.025h-.282a.992.992,0,0,0-.47,0h-.188a.092.092,0,0,0-.075-.025h-.113c-.031,0-.069-.006-.094.025h-.232a2.035,2.035,0,0,0-.7-.125,11.722,11.722,0,0,1-6.171-3.007,11.377,11.377,0,0,1-3.727-6.5A11.556,11.556,0,0,1,4.091,4.007a11.821,11.821,0,0,1,6.872-2.951A11.458,11.458,0,0,1,19.42,3.569c.175.138.351.288.52.439a.932.932,0,0,1,.119,1.353.916.916,0,0,1-1.341.063,9.663,9.663,0,0,0-2.832-1.8,9.859,9.859,0,0,0-8.338.332,9.62,9.62,0,0,0-5.312,6.29A9.934,9.934,0,0,0,7.655,22.081a9.9,9.9,0,0,0,7.843.432,9.532,9.532,0,0,0,3.126-1.879.98.98,0,0,1,.89-.307A.91.91,0,0,1,20.266,21.022Z" fill="url(#linear-gradient)"/>
    <path id="Path_2414" data-name="Path 2414" d="M24,12.715v.752a1.429,1.429,0,0,0-.113.395,2.89,2.89,0,0,1-.745,1.228c-1.027,1.015-2.061,2.03-3.088,3.038a.941.941,0,1,1-1.3-1.353c1-.984,1.992-1.961,2.988-2.944a.944.944,0,0,0-.013-1.535c-1-.971-1.992-1.936-2.988-2.907a.921.921,0,0,1-.282-.958.9.9,0,0,1,.714-.67.861.861,0,0,1,.821.232c1.084,1.046,2.168,2.1,3.239,3.157a2.537,2.537,0,0,1,.733,1.51C23.962,12.684,23.987,12.7,24,12.715Z" fill="url(#linear-gradient-2)"/>
    <path id="Path_2415" data-name="Path 2415" d="M19.333,13.93c-.99.006-1.986,0-2.976,0h-9.6a.937.937,0,1,1-.169-1.867,1.428,1.428,0,0,1,.163,0H19.283a.945.945,0,0,1,1.009.839A.932.932,0,0,1,19.333,13.93Z" fill="url(#linear-gradient-3)"/>
  </g>
</svg>
