<svg width="36" height="36" viewBox="0 0 36 36" fill="none" xmlns="http://www.w3.org/2000/svg">
<path d="M22.5042 8.53653C21.7281 8.53653 21.0814 9.18324 21.0814 9.95928V13.7533C21.0814 14.5293 21.7281 15.1761 22.5042 15.1761C23.2802 15.1761 23.9269 14.5293 23.9269 13.7533V9.95928C23.9269 9.14012 23.3233 8.53653 22.5042 8.53653Z" fill="url(#paint0_linear_197_37065)"/>
<path d="M26.7725 0H8.79401C6.68144 0 5 1.68144 5 3.79401V32.206C5 34.3186 6.68144 36 8.79401 36H26.7725C28.885 36 30.5665 34.3186 30.5665 32.206V3.79401C30.5665 1.68144 28.885 0 26.7725 0ZM12.1138 32.206H10.2168C9.44072 32.206 8.79401 31.5593 8.79401 30.7832C8.79401 30.0072 9.44072 29.3605 10.2168 29.3605H12.1138C12.8898 29.3605 13.5365 30.0072 13.5365 30.7832C13.5365 31.5593 12.8898 32.206 12.1138 32.206ZM12.1138 27.4635H10.2168C9.44072 27.4635 8.79401 26.8168 8.79401 26.0407C8.79401 25.2647 9.44072 24.618 10.2168 24.618H12.1138C12.8898 24.618 13.5365 25.2647 13.5365 26.0407C13.5365 26.8168 12.8898 27.4635 12.1138 27.4635ZM12.1138 22.721H10.2168C9.44072 22.721 8.79401 22.0743 8.79401 21.2982C8.79401 20.5222 9.44072 19.8754 10.2168 19.8754H12.1138C12.8898 19.8754 13.5365 20.5222 13.5365 21.2982C13.5365 22.0743 12.8898 22.721 12.1138 22.721ZM18.7533 32.206H16.8563C16.0802 32.206 15.4335 31.5593 15.4335 30.7832C15.4335 30.0072 16.0802 29.3605 16.8563 29.3605H18.7533C19.5293 29.3605 20.176 30.0072 20.176 30.7832C20.176 31.5593 19.5293 32.206 18.7533 32.206ZM18.7533 27.4635H16.8563C16.0802 27.4635 15.4335 26.8168 15.4335 26.0407C15.4335 25.2647 16.0802 24.618 16.8563 24.618H18.7533C19.5293 24.618 20.176 25.2647 20.176 26.0407C20.1329 26.8168 19.5293 27.4635 18.7533 27.4635ZM18.7533 22.721H16.8563C16.0802 22.721 15.4335 22.0743 15.4335 21.2982C15.4335 20.5222 16.0802 19.8754 16.8563 19.8754H18.7533C19.5293 19.8754 20.176 20.5222 20.176 21.2982C20.176 22.0743 19.5293 22.721 18.7533 22.721ZM26.7725 30.7832C26.7725 31.5593 26.1257 32.206 25.3497 32.206H23.4527C22.6766 32.206 22.0299 31.5593 22.0299 30.7832V26.0407C22.0299 25.2647 22.6766 24.618 23.4527 24.618H25.3497C26.1257 24.618 26.7725 25.2647 26.7725 26.0407V30.7832ZM25.3497 22.721H23.4527C22.6766 22.721 22.0299 22.0743 22.0299 21.2982C22.0299 20.5222 22.6766 19.8754 23.4527 19.8754H25.3497C26.1257 19.8754 26.7725 20.5222 26.7725 21.2982C26.7725 22.0743 26.1257 22.721 25.3497 22.721ZM26.7725 15.6072C26.7725 16.1245 26.3413 16.5557 25.824 16.5557H9.74252C9.22515 16.5557 8.79401 16.1245 8.79401 15.6072V7.11377C8.79401 6.59641 9.22515 6.16527 9.74252 6.16527H25.824C26.3413 6.16527 26.7725 6.59641 26.7725 7.11377V15.6072Z" fill="url(#paint1_linear_197_37065)"/>
<defs>
<linearGradient id="paint0_linear_197_37065" x1="21.0814" y1="15.1761" x2="25.8894" y2="13.1155" gradientUnits="userSpaceOnUse">
<stop stop-color="#DFB343"/>
<stop offset="1" stop-color="#E59B44"/>
</linearGradient>
<linearGradient id="paint1_linear_197_37065" x1="5" y1="36" x2="38.9899" y2="11.861" gradientUnits="userSpaceOnUse">
<stop stop-color="#DFB343"/>
<stop offset="1" stop-color="#E59B44"/>
</linearGradient>
</defs>
</svg>
