<svg xmlns="http://www.w3.org/2000/svg" width="170.242" height="170.558" viewBox="0 0 170.242 170.558">
  <g id="maths_quiz" transform="translate(-2118 -6004)">
    <path id="Path_13365" data-name="Path 13365" d="M0,104.6V16.323a4.145,4.145,0,0,0,.29-.751A17.93,17.93,0,0,1,9.808,2.326,44.973,44.973,0,0,1,16.291,0H153.934a4.113,4.113,0,0,0,.75.292,18.534,18.534,0,0,1,15.522,18.485q.073,41.637-.058,83.274a19.261,19.261,0,0,1-1.746,7.859c-3.542,7.548-9.817,10.915-18.059,10.91q-50.781-.028-101.562-.008c-9.807,0-19.614.024-29.421-.007C10.531,120.777,3.48,115.77.9,107.753c-.335-1.039-.6-2.1-.9-3.153M48.748,65.614c-.235-.687-.405-1.085-.507-1.5Q46.391,56.609,44.56,49.1,42.032,38.765,39.5,28.431c-.755-3.062-2.842-4.948-5.577-5.115-4.436-.27-7.344,3.529-6.212,8.161q4.48,18.328,8.988,36.65c1.954,7.965,3.931,15.924,5.851,23.9.617,2.562,1.887,4.5,4.522,5.236,3.715,1.034,6.719-1.11,7.781-5.45q6.7-27.37,13.384-54.743c.3-1.246.8-1.688,2.111-1.645,3.21.1,6.426.034,9.639.034q28.089,0,56.179-.01c3.975,0,6.679-2.521,6.679-6.085,0-3.54-2.76-6.063-6.7-6.064q-35.818-.011-71.637,0c-3.683,0-5.777,1.664-6.658,5.23-1.236,5-2.453,10.011-3.683,15.015-1.783,7.26-3.569,14.52-5.426,22.071m52.463-4.534C97.388,57.216,93.69,53.4,89.9,49.674a6.069,6.069,0,1,0-8.582,8.583c2.222,2.322,4.516,4.576,6.807,6.83,1.49,1.466,3.031,2.88,4.6,4.367-.613.653-.975,1.06-1.359,1.445-3.325,3.337-6.675,6.65-9.973,10.013a5.968,5.968,0,0,0-1.249,7.041,5.694,5.694,0,0,0,6.294,3.273,8.369,8.369,0,0,0,3.831-2.063c3.726-3.532,7.291-7.234,10.971-10.926,3.712,3.72,7.3,7.337,10.914,10.931,2.767,2.753,6.527,2.923,9.016.443,2.542-2.532,2.4-6.214-.384-9.027-3.235-3.27-6.5-6.514-9.742-9.774-.377-.378-.722-.788-1.308-1.431a16.521,16.521,0,0,0,1.543-1.2c3.263-3.242,6.55-6.463,9.743-9.772a6.055,6.055,0,0,0-2.6-10.225A5.986,5.986,0,0,0,112.227,50c-3.626,3.658-7.262,7.306-11.017,11.081" transform="translate(2118 6004)" fill="#f98064"/>
    <path id="Path_13366" data-name="Path 13366" d="M54.1,342.57a17.647,17.647,0,0,1-3.155-2.287c-2.229-2.5-1.87-6.053.77-8.47a78.42,78.42,0,0,1,24.873-15.376q36.294-14.031,72.575.192a77.868,77.868,0,0,1,24.273,15.108c3.765,3.448,2.688,8.737-2.063,10.529a5,5,0,0,0-.576.3h-2.327c-1.426-.92-2.884-1.794-4.272-2.768-3.439-2.414-6.675-5.172-10.3-7.263-16.792-9.7-34.931-12.552-53.973-9.862a75.542,75.542,0,0,0-37.039,15.564c-1.89,1.5-3.863,2.889-5.8,4.329Z" transform="translate(2090.497 5831.987)" fill="#f98064"/>
  </g>
</svg>
