<svg xmlns="http://www.w3.org/2000/svg" xmlns:xlink="http://www.w3.org/1999/xlink" width="16.868" height="24" viewBox="0 0 16.868 24">
  <defs>
    <linearGradient id="linear-gradient" y1="1" x2="0.201" y2="-0.799" gradientUnits="objectBoundingBox">
      <stop offset="0.005" stop-color="#e49e45"/>
      <stop offset="1" stop-color="#e0b154"/>
    </linearGradient>
    <linearGradient id="linear-gradient-2" x1="0" x2="1.18" y2="0.18" xlink:href="#linear-gradient"/>
  </defs>
  <g id="notification_icon" transform="translate(-3.998 -0.006)">
    <path id="Path_2416" data-name="Path 2416" d="M14.706,23.912c-.069.031-.138.063-.213.094H10.371l-.213-.094a.934.934,0,0,1-.526-1,.915.915,0,0,1,.871-.777c1.284-.013,2.575-.013,3.859,0a.921.921,0,0,1,.871.777A.938.938,0,0,1,14.706,23.912Z" fill="url(#linear-gradient)"/>
    <path id="Path_2417" data-name="Path 2417" d="M19.555,15.073a1.076,1.076,0,0,1-.564-1.034c.006-1.9.019-3.809,0-5.72a6.554,6.554,0,0,0-5.457-6.34c-.15-.025-.175-.081-.169-.213.006-.276.006-.545,0-.821A.937.937,0,0,0,11.493.94c-.006.226-.013.451,0,.677s-.031.332-.3.388a6.525,6.525,0,0,0-5.319,6.54v5.576a.983.983,0,0,1-.514.921A2.667,2.667,0,0,0,4,17.334a2.8,2.8,0,0,0,2.825,2.913c1.867.006,3.734,0,5.6,0s3.765.006,5.644,0a2.819,2.819,0,0,0,2.681-2.023A2.757,2.757,0,0,0,19.555,15.073Zm-.6,2.6a.926.926,0,0,1-.933.7H6.85a.915.915,0,0,1-.883-.539.9.9,0,0,1,.106-.971A1.058,1.058,0,0,1,6.4,16.6a2.6,2.6,0,0,0,1.347-2.362c.019-1.911.006-3.828.006-5.745a4.689,4.689,0,0,1,9.284-.99,5.584,5.584,0,0,1,.094,1.021v5.532a2.739,2.739,0,0,0,1.4,2.568A.924.924,0,0,1,18.96,17.673Z" fill="url(#linear-gradient-2)"/>
  </g>
</svg>
