<svg xmlns="http://www.w3.org/2000/svg" xmlns:xlink="http://www.w3.org/1999/xlink" width="47.993" height="32.608" viewBox="0 0 47.993 32.608">
  <defs>
    <linearGradient id="linear-gradient" x1="1.822" y1="-3.359" x2="-0.099" y2="0.5" gradientUnits="objectBoundingBox">
      <stop offset="0" stop-color="#e59b44"/>
      <stop offset="1" stop-color="#dfb343"/>
    </linearGradient>
  </defs>
  <g id="one_vs_one_icon" transform="translate(-1.015 -8)">
    <path id="Path_2323" data-name="Path 2323" d="M48.829,17.52,40.05,8.171a.487.487,0,0,0-.741,0L35.6,11.649a.487.487,0,0,0,0,.741l8.836,9.349a.487.487,0,0,0,.741,0l3.706-3.477A.539.539,0,0,0,48.829,17.52ZM45.637,18.6a1.17,1.17,0,1,1,.057-1.653A1.227,1.227,0,0,1,45.637,18.6ZM10.064,9.425a.54.54,0,0,0-.741.114l-8.209,10.6a.541.541,0,0,0,.114.741l4.048,3.135a.541.541,0,0,0,.741-.114l8.209-10.6a.541.541,0,0,0-.114-.741ZM6.188,20.485a1.14,1.14,0,1,1-.228-1.6A1.065,1.065,0,0,1,6.188,20.485Z" fill="url(#linear-gradient)"/>
    <path id="Path_2324" data-name="Path 2324" d="M36.857,30.746l-9.064-7.069L26.14,25.159a8.988,8.988,0,0,1-5.986,2.679,7.008,7.008,0,0,1-1.14-.114,6.354,6.354,0,0,1-4.333-2.964,3.142,3.142,0,0,1,.57-3.99l6.5-5.929a4.209,4.209,0,0,0-2.565-.855,4.291,4.291,0,0,0-3.364,1.653L9.494,23.848a3.125,3.125,0,0,0-.627,2.337l.4,3.306a3.074,3.074,0,0,0,1.2,2.109L21.58,40.266a1.708,1.708,0,0,0,1.026.342,1.617,1.617,0,0,0,1.254-.57l.513-.57a1.676,1.676,0,0,0-.171-2.451l1.881,1.539a1.6,1.6,0,0,0,1.083.4,1.84,1.84,0,0,0,1.2-.456l.57-.57a1.717,1.717,0,0,0-.114-2.565l1.368,1.14a1.6,1.6,0,0,0,1.083.4,1.64,1.64,0,0,0,1.2-.513l.513-.513a1.739,1.739,0,0,0-.057-2.508l.912.8a1.743,1.743,0,0,0,1.14.4,1.7,1.7,0,0,0,1.311-.627l.8-.969A1.481,1.481,0,0,0,36.857,30.746Zm4.39-8.437L33.608,14.5a2.04,2.04,0,0,0-1.254-.627l-3.934-.513a2.277,2.277,0,0,0-1.71.513l-.912.855-8.779,7.981c-.057.114-.285.4-.057.684l.057.114a3.565,3.565,0,0,0,2.451,1.653c1.539.285,3.192-.4,4.9-1.938L27.679,20.2l10.375,8.1L41.3,25.273A2.135,2.135,0,0,0,41.247,22.309Z" fill="url(#linear-gradient)"/>
  </g>
</svg>
