<svg id="quiz_zone_icon" xmlns="http://www.w3.org/2000/svg" xmlns:xlink="http://www.w3.org/1999/xlink" width="36" height="34.687" viewBox="0 0 36 34.687">
  <defs>
    <linearGradient id="linear-gradient" x1="1.822" y1="-3.359" x2="-0.099" y2="0.5" gradientUnits="objectBoundingBox">
      <stop offset="0" stop-color="#e59b44"/>
      <stop offset="1" stop-color="#dfb343"/>
    </linearGradient>
  </defs>
  <path id="Path_2325" data-name="Path 2325" d="M35.871,4.588a.24.24,0,0,0-.257-.214h-.472A.465.465,0,0,1,34.8,4.03a3.1,3.1,0,0,0-.386-.858.264.264,0,0,1,.043-.3l.386-.386a.324.324,0,0,0,.043-.343A5.491,5.491,0,0,0,33.77,1.029a.266.266,0,0,0-.343.043l-.386.386a.264.264,0,0,1-.3.043,4.122,4.122,0,0,0-1.2-.472V.3a.272.272,0,0,0-.214-.257C31.112.043,30.855,0,30.6,0s-.515.043-.772.043A.24.24,0,0,0,29.611.3v.772a4.121,4.121,0,0,0-1.2.472.264.264,0,0,1-.3-.043l-.386-.386a.324.324,0,0,0-.343-.043,5.5,5.5,0,0,0-1.115,1.115.266.266,0,0,0,.043.343l.386.386a.264.264,0,0,1,.043.3,5.206,5.206,0,0,0-.386.858.465.465,0,0,1-.343.343H25.5a.272.272,0,0,0-.257.214A4.658,4.658,0,0,0,25.2,5.4c0,.257.043.515.043.772a.24.24,0,0,0,.257.214h.514a.465.465,0,0,1,.343.343,3.093,3.093,0,0,0,.386.858.264.264,0,0,1-.043.3l-.386.386a.324.324,0,0,0-.043.343,5.5,5.5,0,0,0,1.115,1.115.266.266,0,0,0,.343-.043l.386-.386a.264.264,0,0,1,.3-.043,4.121,4.121,0,0,0,1.2.472V10.5a.272.272,0,0,0,.214.257,4.658,4.658,0,0,0,.772.043c.257,0,.514-.043.772-.043a.24.24,0,0,0,.214-.257V9.733a4.122,4.122,0,0,0,1.2-.472.264.264,0,0,1,.3.043l.386.386a.324.324,0,0,0,.343.043,5.492,5.492,0,0,0,1.115-1.115.266.266,0,0,0-.043-.343L34.5,7.889a.264.264,0,0,1-.043-.3,5.206,5.206,0,0,0,.386-.858.465.465,0,0,1,.343-.343H35.7a.272.272,0,0,0,.257-.214A4.658,4.658,0,0,0,36,5.4C35.957,5.1,35.914,4.845,35.871,4.588ZM32.613,5.7A2.1,2.1,0,0,1,30.9,7.418a2.057,2.057,0,0,1-2.358-2.358,2.1,2.1,0,0,1,1.715-1.715A2.057,2.057,0,0,1,32.613,5.7Z" fill="url(#linear-gradient)"/>
  <path id="Path_2326" data-name="Path 2326" d="M27.3,19.852l-2.315-5.4v-.943A12.492,12.492,0,0,0,.069,12.134a12.61,12.61,0,0,0,3.9,10.548A5.736,5.736,0,0,1,5.686,28.3L4.4,33.615c-.214.815.043,1.072.343,1.072H16.92a.5.5,0,0,0,.472-.386l.815-3.859A1.927,1.927,0,0,1,20.093,28.9h3.216a1.72,1.72,0,0,0,1.715-1.715v-6h1.415A.929.929,0,0,0,27.3,19.852ZM18.721,13.72a.326.326,0,0,1-.343.257h-.686a.674.674,0,0,0-.472.429,8.682,8.682,0,0,1-.472,1.115.319.319,0,0,0,.043.386l.514.514a.33.33,0,0,1,.043.429,7.821,7.821,0,0,1-1.458,1.458.33.33,0,0,1-.429-.043l-.472-.472a.319.319,0,0,0-.386-.043,5.145,5.145,0,0,1-1.586.643v.986a.373.373,0,0,1-.257.343,8.321,8.321,0,0,1-1.029.086,8.321,8.321,0,0,1-1.029-.086.326.326,0,0,1-.257-.343v-.986a5.146,5.146,0,0,1-1.586-.643.319.319,0,0,0-.386.043l-.515.514a.33.33,0,0,1-.429.043,7.82,7.82,0,0,1-1.458-1.458.33.33,0,0,1,.043-.429l.515-.514a.319.319,0,0,0,.043-.386A3.638,3.638,0,0,1,6.2,14.449a.674.674,0,0,0-.472-.429H5.043a.373.373,0,0,1-.343-.257,8.33,8.33,0,0,1-.086-1.029A8.327,8.327,0,0,1,4.7,11.705a.326.326,0,0,1,.343-.257h.686a.674.674,0,0,0,.472-.429A8.7,8.7,0,0,1,6.672,9.9a.319.319,0,0,0-.043-.386L6.115,9a.33.33,0,0,1-.043-.429A7.823,7.823,0,0,1,7.53,7.117a.33.33,0,0,1,.429.043l.515.515a.319.319,0,0,0,.386.043,5.146,5.146,0,0,1,1.586-.643V6A.373.373,0,0,1,10.7,5.66a8.325,8.325,0,0,1,1.029-.086,8.325,8.325,0,0,1,1.029.086A.326.326,0,0,1,13.018,6v.986a5.145,5.145,0,0,1,1.586.643.319.319,0,0,0,.386-.043l.514-.515a.33.33,0,0,1,.429-.043A7.823,7.823,0,0,1,17.392,8.49a.33.33,0,0,1-.043.429l-.514.515a.319.319,0,0,0-.043.386,3.639,3.639,0,0,1,.472,1.115.674.674,0,0,0,.472.429h.686a.373.373,0,0,1,.343.257,8.323,8.323,0,0,1,.086,1.029C18.806,13.035,18.764,13.377,18.721,13.72ZM11.26,9.99a2.693,2.693,0,1,0,3.087,3.087A2.685,2.685,0,0,0,11.26,9.99Z" fill="url(#linear-gradient)"/>
</svg>
