<svg xmlns="http://www.w3.org/2000/svg" xmlns:xlink="http://www.w3.org/1999/xlink" width="25.233" height="24.017" viewBox="0 0 25.233 24.017">
  <defs>
    <linearGradient id="linear-gradient" y1="1" x2="0.951" y2="-0.049" gradientUnits="objectBoundingBox">
      <stop offset="0.005" stop-color="#e49e45"/>
      <stop offset="1" stop-color="#e0b154"/>
    </linearGradient>
    <linearGradient id="linear-gradient-2" y1="1" x2="1" y2="0" xlink:href="#linear-gradient"/>
    <linearGradient id="linear-gradient-4" y1="1" x2="0.995" y2="-0.005" xlink:href="#linear-gradient"/>
  </defs>
  <g id="rate_icon" transform="translate(0 -0.995)">
    <path id="Path_2418" data-name="Path 2418" d="M23.855,8.653a9.362,9.362,0,0,0-1.027-.336,34.656,34.656,0,0,0-4.861-.883.528.528,0,0,1-.481-.329c-.527-1.067-1.1-2.108-1.706-3.128A19.057,19.057,0,0,0,14.338,1.81a2.08,2.08,0,0,0-3.227-.092,7.9,7.9,0,0,0-.566.744A43.7,43.7,0,0,0,7.8,7.178a.41.41,0,0,1-.349.244c-.738.1-1.482.191-2.22.31a21.783,21.783,0,0,0-3.827.883A2.061,2.061,0,0,0,.092,10c-.026.079-.013.184-.092.244v.738a6.491,6.491,0,0,0,.283.665,9.193,9.193,0,0,0,.8,1.034,40.446,40.446,0,0,0,3.636,3.57.322.322,0,0,1,.125.356c-.211,1-.389,2.015-.527,3.03a17.133,17.133,0,0,0-.224,3.286,2.091,2.091,0,0,0,1.884,1.923,3.575,3.575,0,0,0,1.594-.336,42.121,42.121,0,0,0,4.907-2.305.307.307,0,0,1,.356.007c.817.481,1.653.935,2.5,1.363a17.062,17.062,0,0,0,3.333,1.37,2.09,2.09,0,0,0,2.6-1.864,5.926,5.926,0,0,0,0-.836,43.785,43.785,0,0,0-.738-5.631.328.328,0,0,1,.112-.343c.685-.613,1.35-1.245,2-1.9a19.78,19.78,0,0,0,2.193-2.5A2.114,2.114,0,0,0,23.855,8.653Zm-.678,2.134A16.6,16.6,0,0,1,21.59,12.6q-1.3,1.344-2.714,2.582a1.152,1.152,0,0,0-.408,1.179c.3,1.548.553,3.1.725,4.663a16.213,16.213,0,0,1,.105,1.693c0,.309-.033.336-.329.25a14.483,14.483,0,0,1-2.266-.929c-1.153-.566-2.285-1.172-3.385-1.844a1.157,1.157,0,0,0-1.271-.02,42.912,42.912,0,0,1-5.085,2.444c-.224.086-.448.151-.672.23-.151.046-.237.007-.237-.171v-.612A33.545,33.545,0,0,1,6.731,17.2c.059-.3.119-.612.184-.915a.986.986,0,0,0-.349-1.034c-1.008-.876-2-1.778-2.944-2.727a15.027,15.027,0,0,1-1.548-1.752c-.151-.211-.145-.25.112-.342A19.684,19.684,0,0,1,5.394,9.7c.995-.165,2-.3,3-.408a1.062,1.062,0,0,0,.869-.639,48.741,48.741,0,0,1,2.727-4.808c.165-.244.336-.481.514-.718.151-.2.211-.2.362,0a21.394,21.394,0,0,1,1.574,2.463c.566.995,1.113,2,1.614,3.036a1.173,1.173,0,0,0,1.021.685A32.084,32.084,0,0,1,22.7,10.339c.125.04.244.092.369.132C23.269,10.53,23.3,10.622,23.177,10.787Z" fill="url(#linear-gradient)"/>
    <path id="Path_2419" data-name="Path 2419" d="M13.4,14.719a1.218,1.218,0,0,1-1.251,1.212,1.234,1.234,0,0,1-1.205-1.238,1.22,1.22,0,0,1,1.218-1.219A1.206,1.206,0,0,1,13.4,14.719Z" fill="url(#linear-gradient-2)"/>
    <path id="Path_2420" data-name="Path 2420" d="M16.847,17.545a1.206,1.206,0,0,1-1.238,1.245,1.228,1.228,0,0,1-.013-2.457A1.206,1.206,0,0,1,16.847,17.545Z" fill="url(#linear-gradient-2)"/>
    <path id="Path_2421" data-name="Path 2421" d="M17.69,13.132a1.232,1.232,0,0,1-2.463-.026,1.232,1.232,0,0,1,2.463.026Z" fill="url(#linear-gradient-4)"/>
  </g>
</svg>
