<svg xmlns="http://www.w3.org/2000/svg" xmlns:xlink="http://www.w3.org/1999/xlink" width="23.994" height="23.992" viewBox="0 0 23.994 23.992">
  <defs>
    <linearGradient id="linear-gradient" y1="1" x2="1.337" y2="0.337" gradientUnits="objectBoundingBox">
      <stop offset="0.005" stop-color="#e49e45"/>
      <stop offset="1" stop-color="#e0b154"/>
    </linearGradient>
    <linearGradient id="linear-gradient-2" x1="0" x2="1.882" y2="0.882" xlink:href="#linear-gradient"/>
    <linearGradient id="linear-gradient-3" x1="0" x2="1.883" y2="0.883" xlink:href="#linear-gradient"/>
    <linearGradient id="linear-gradient-4" x1="0" x2="0.961" y2="-0.039" xlink:href="#linear-gradient"/>
  </defs>
  <g id="reword_icon" transform="translate(0 -0.001)">
    <path id="Path_2422" data-name="Path 2422" d="M20.43,2.762A2.791,2.791,0,0,0,17.681.006Q12,0,6.319.006A2.8,2.8,0,0,0,3.564,2.762c-.006,2.562-.019,5.123.006,7.685a8.134,8.134,0,0,0,2.223,5.562,8.2,8.2,0,0,0,5.073,2.656c.15.019.2.069.2.232q-.009,1.522,0,3.044c0,.156-.05.188-.194.188-.877-.006-1.747-.006-2.624,0a.929.929,0,0,0-.921.777.941.941,0,0,0,.57,1.021c.056.025.113.05.169.069h7.873c.013-.006.025-.025.038-.025a.936.936,0,0,0-.313-1.841c-.833,0-1.672-.006-2.505.006-.169,0-.219-.031-.219-.213.013-.908.006-1.81.006-2.718,0-.163-.044-.363.031-.476.056-.081.276-.063.42-.088l.113-.019A8.438,8.438,0,0,0,20.43,10.6C20.455,7.979,20.436,5.374,20.43,2.762ZM5.524,11.386A7.559,7.559,0,0,1,5.43,10.2V2.956A.963.963,0,0,1,6.514,1.879H17.505a.953.953,0,0,1,1.059,1.052V10.24a6.565,6.565,0,0,1-13.04,1.146Z" fill="url(#linear-gradient)"/>
    <path id="Path_2423" data-name="Path 2423" d="M1.873,8.142v2.079a.955.955,0,0,1-.783,1.015.946.946,0,0,1-1.065-.7C.019,10.522.006,10.509,0,10.5V4.5A.815.815,0,0,1,.05,4.4.938.938,0,0,1,1.879,4.7C1.879,5.85,1.873,7,1.873,8.142Z" fill="url(#linear-gradient-2)"/>
    <path id="Path_2424" data-name="Path 2424" d="M23.994,4.779v5.455a.94.94,0,1,1-1.873-.012V4.766a.933.933,0,0,1,.927-1.015A.944.944,0,0,1,23.994,4.779Z" fill="url(#linear-gradient-3)"/>
    <path id="Path_2425" data-name="Path 2425" d="M16.177,7.992a.947.947,0,0,0-.564-1.653q-.846-.132-1.691-.244a.339.339,0,0,1-.294-.219c-.238-.507-.5-1-.745-1.5a.951.951,0,0,0-1.779,0c-.25.514-.507,1.015-.758,1.528a.316.316,0,0,1-.263.194c-.551.075-1.1.169-1.641.238a.98.98,0,0,0-.9.639A.955.955,0,0,0,7.86,8.042c.407.388.8.789,1.2,1.184a.284.284,0,0,1,.106.282c-.1.557-.182,1.127-.288,1.685a.959.959,0,0,0,.357,1.04.941.941,0,0,0,1.1.013c.495-.263,1-.514,1.491-.777a.3.3,0,0,1,.319,0c.532.288,1.071.57,1.616.839a.881.881,0,0,0,.99-.088.913.913,0,0,0,.357-.933c-.094-.583-.194-1.171-.3-1.754a.3.3,0,0,1,.1-.307C15.344,8.818,15.758,8.4,16.177,7.992ZM12.9,8.724c-.119.344.038.676.05,1.084a1.385,1.385,0,0,0-1.917-.031,1.443,1.443,0,0,0-.6-1.835A1.417,1.417,0,0,0,11.969,6.77c.225.344.3.7.595.908a2.685,2.685,0,0,0,.977.257C13.334,8.211,13.015,8.386,12.9,8.724Z" fill="url(#linear-gradient-4)"/>
  </g>
</svg>
