<svg xmlns="http://www.w3.org/2000/svg" xmlns:xlink="http://www.w3.org/1999/xlink" width="48.058" height="48.058" viewBox="0 0 48.058 48.058">
  <defs>
    <linearGradient id="linear-gradient" x1="1.822" y1="-3.359" x2="-0.099" y2="0.5" gradientUnits="objectBoundingBox">
      <stop offset="0" stop-color="#e59b44"/>
      <stop offset="1" stop-color="#dfb343"/>
    </linearGradient>
  </defs>
  <g id="self_challenge" data-name="self challenge" transform="translate(-720 -204)">
    <path id="Path_2327" data-name="Path 2327" d="M732.014,204h1.5a2.124,2.124,0,0,0,.256.091,5.67,5.67,0,0,1,2.375,10.08,5.552,5.552,0,0,1-1.2.716,14.875,14.875,0,0,1-1.439.488h13.306v5.639h-9.8v8.423c.914,0,1.8,0,2.69,0a2.809,2.809,0,0,1,2.912,2.891q.013,3.941-.01,7.882a.794.794,0,0,1-.292.556c-1.653,1.182-3.322,2.34-4.988,3.5-.094.066-.2.113-.365.205v-9.383h-2.79v.528c0,3.112-.046,6.226.025,9.336.024,1.059-.109,1.888-1.17,2.333a.357.357,0,0,0-.075.056,4.11,4.11,0,0,0-1.315,4.712h-2.065a1.815,1.815,0,0,1-1.046-1.891q.033-12.27.013-24.54a4.566,4.566,0,0,0-.007-.516,1.374,1.374,0,0,0-.9-1.207,1.4,1.4,0,0,0-1.9,1.406q-.009,4.622,0,9.243v.494a5.79,5.79,0,0,1-4.445-2.09,6.818,6.818,0,0,1-1.28-2.771v-9.949a.719.719,0,0,0,.079-.161,5.739,5.739,0,0,1,5.765-4.719c1.626,0,3.252,0,4.878,0h1.186a.233.233,0,0,0-.173-.1,5.552,5.552,0,0,1-4.464-4.472,5.265,5.265,0,0,1,2.278-5.732A12.576,12.576,0,0,1,732.014,204Z" fill="url(#linear-gradient)"/>
    <path id="Path_2328" data-name="Path 2328" d="M867.013,250.274v.751a2.144,2.144,0,0,1-1.032,1.033H834.161c-1.377-.822-1.4-1.881-.063-2.817q7.03-4.92,14.066-9.83a.966.966,0,0,0,.46-.915q-.016-16.3-.021-32.606a1.809,1.809,0,0,1,1.045-1.89h14.83a1.8,1.8,0,0,1,1.046,1.891c-.038,2.565-.013,5.13-.013,7.7,0,1.265-.5,1.77-1.749,1.77h-12.33v.357q0,11.5-.009,22.993a.682.682,0,0,0,.373.627q7.09,4.919,14.164,9.86A7.94,7.94,0,0,1,867.013,250.274Z" transform="translate(-98.956)" fill="url(#linear-gradient)"/>
  </g>
</svg>
