<svg xmlns="http://www.w3.org/2000/svg" xmlns:xlink="http://www.w3.org/1999/xlink" width="557.505" height="217.329" viewBox="0 0 557.505 217.329">
  <defs>
    <linearGradient id="linear-gradient" x1="9.879" y1="-3.743" x2="-2.949" y2="-0.127" gradientUnits="objectBoundingBox">
      <stop offset="0" stop-color="#c98d48"/>
      <stop offset="1" stop-color="#dfb343"/>
    </linearGradient>
  </defs>
  <g id="splash_logo" transform="translate(1215.929 -7157.749)">
    <path id="Path_2347" data-name="Path 2347" d="M-1760.68-2719.409c-1.062-.011-2.437-.052-3.156-.125-9.2-.761-16.683-7.508-18.879-16.775a21.916,21.916,0,0,1,15.932-26.479,21.924,21.924,0,0,1,26.9,16.351,22,22,0,0,1-17.095,26.538A22.693,22.693,0,0,1-1760.68-2719.409Z" transform="translate(692.664 10094.487)" fill="url(#linear-gradient)"/>
    <path id="Path_2348" data-name="Path 2348" d="M2202.157-5247.335a13.119,13.119,0,0,1,6.149,2.467,12.827,12.827,0,0,1,5.2,8.669,12.738,12.738,0,0,1-2.627,9.974,12.6,12.6,0,0,1-7.784,4.8,13.086,13.086,0,0,1-14.68-7.8,11.4,11.4,0,0,1-.946-4.139,13.233,13.233,0,0,1,.7-5.34,12.92,12.92,0,0,1,9.765-8.443,11.809,11.809,0,0,1,2.184-.3A9.583,9.583,0,0,1,2202.157-5247.335Zm-1.646,4.185a8.753,8.753,0,0,0-8.9,8.849,8.9,8.9,0,0,0,8.989,8.922,9,9,0,0,0,8.848-8.957A8.874,8.874,0,0,0,2200.51-5243.15Z" transform="translate(-3000.849 12405.206)" fill="url(#linear-gradient)"/>
    <path id="Path_2349" data-name="Path 2349" d="M-3442.175-4442.552c-.783-.551-9.754-9.508-10.389-10.386.117-.245.231-.526.378-.788a58.772,58.772,0,0,0,6.381-16.889,60.2,60.2,0,0,0,1.114-7.994,54.273,54.273,0,0,0,.157-5.538,58.729,58.729,0,0,0-6.788-26.133,58.887,58.887,0,0,0-22.74-23.675,58.212,58.212,0,0,0-19.313-7.051,45.424,45.424,0,0,0-7.338-.784c-.884-.013-1.767-.141-2.65-.134a59.453,59.453,0,0,0-27.136,6.5,58.711,58.711,0,0,0-13.041,9.076,58.609,58.609,0,0,0-17.674,30.238,58.8,58.8,0,0,0-1.3,8.315,55.525,55.525,0,0,0-.121,8.423,58.62,58.62,0,0,0,9.939,29.51,57.406,57.406,0,0,0,6.446,7.991,2,2,0,0,0,.931.726c.4-.1.655-.461.948-.751q2.911-2.889,5.809-5.79,6.578-6.573,13.152-13.149c.322-.322.625-.664.9-.956a2.175,2.175,0,0,0-.762-1.1,29.205,29.205,0,0,1-6.427-11.234,28.78,28.78,0,0,1-1.261-10.144,29.332,29.332,0,0,1,14.65-23.893,27.843,27.843,0,0,1,10.292-3.591,28.841,28.841,0,0,1,23.8,7.021,28.551,28.551,0,0,1,9.474,16.764,29.307,29.307,0,0,1,.4,6.781,28.735,28.735,0,0,1-4.5,14.136,24.722,24.722,0,0,1-3.514,4.42q-5.046,5-10.047,10.047a2.608,2.608,0,0,0-.869,1.1,4.208,4.208,0,0,0,.319.444c.261.283.538.551.81.823q13.927,13.926,27.853,27.854a3.959,3.959,0,0,1,.893,1.017c-1.906,2.054-12.33,7.05-18.654,8.954a73.3,73.3,0,0,1-39,1.133,72.121,72.121,0,0,1-33.437-18.313,73.57,73.57,0,0,1-1.26-105.076,73.658,73.658,0,0,1,105.5,1.313,73.054,73.054,0,0,1,15.281,24.143,72.8,72.8,0,0,1,4.861,29.291,72.514,72.514,0,0,1-6.419,27.36C-3438.389-4448.395-3441.165-4443.493-3442.175-4442.552Z" transform="translate(2361.262 11762.07)" fill="url(#linear-gradient)"/>
    <path id="Path_2350" data-name="Path 2350" d="M-1246.634-3960.966a2.631,2.631,0,0,0-1.241.576,67.615,67.615,0,0,1-11.034,5.522,46.97,46.97,0,0,1-10.935,2.781,56.542,56.542,0,0,1-10.259.361,34.864,34.864,0,0,1-10.272-2.011,23.151,23.151,0,0,1-13.353-12.228,34.265,34.265,0,0,1-2.818-9.72,53.313,53.313,0,0,1-.494-8.059q.022-26.569.032-53.137c0-.539.017-1.079.007-1.617a4.4,4.4,0,0,1,3.88-4.073c.344-.034.692-.026,1.039-.026q12.824,0,25.648,0a6.631,6.631,0,0,1,1.381.068,4.654,4.654,0,0,1,3.153,2.329,2.966,2.966,0,0,1,.4,1.431c.015.616.032,1.232.033,1.848q.022,22.871.045,45.744a29.65,29.65,0,0,0,.357,5.177,11.407,11.407,0,0,0,.943,3.081,5.137,5.137,0,0,0,5.459,3.032,24.6,24.6,0,0,0,6.063-1.377c.469-.168.913-.4,1.373-.6,1.594-.676,3.192-1.346,4.785-2.024.425-.181.838-.389,1.258-.58a.906.906,0,0,0,.557-.922c-.006-.462.006-.924.006-1.386q.011-24.951.021-49.9c0-.578-.013-1.156.009-1.733a4.423,4.423,0,0,1,4.044-4.168c.384-.025.77-.018,1.155-.018h25.186c.27,0,.54.014.809,0a4.314,4.314,0,0,1,4.24,4.174c0,.462.006.924.006,1.386q.013,38.986.025,77.972c0,.5.013,1-.017,1.5a4.314,4.314,0,0,1-4.145,4.038c-.193,0-.385,0-.578,0-6.585,0-13.171-.011-19.756.011a5.584,5.584,0,0,1-2.967-.789,3.763,3.763,0,0,1-1.522-1.684c-.652-1.394-1.351-2.766-2.038-4.143C-1246.283-3960.4-1246.45-3960.651-1246.634-3960.966Z" transform="translate(249.63 11284.287)" fill="url(#linear-gradient)"/>
    <path id="Path_2351" data-name="Path 2351" d="M734.484-3981.608a3.606,3.606,0,0,0,.616.18c.384.021.77.018,1.155.018h24.606c.462,0,.924.013,1.386.008a4.545,4.545,0,0,1,4.278,4.335c-.006.308.005.616.005.924q0,9.876,0,19.751c0,.308-.011.616-.007.924a4.436,4.436,0,0,1-4.215,4.246c-.385.007-.77.007-1.155.007H690.686c-.308,0-.616-.011-.924,0a4.33,4.33,0,0,1-4.261-4.165c-.009-.308-.011-.616-.012-.924q0-8.721,0-17.441c0-.231.011-.462,0-.693a1.406,1.406,0,0,1,.406-1.042c.518-.57,1.015-1.158,1.522-1.738q7.989-9.125,15.978-18.25,5.783-6.6,11.565-13.209c.268-.307.627-.568.673-.975-.13-.282-.339-.269-.521-.277-.384-.017-.77-.015-1.155-.015q-10.513,0-21.025-.007a8.015,8.015,0,0,1-1.831-.161,4.223,4.223,0,0,1-3.277-3.355,8.212,8.212,0,0,1-.181-1.947c.013-3.426.063-6.852.082-10.277.017-3.042.008-6.083.014-9.125,0-.5.022-1,.038-1.5a4.143,4.143,0,0,1,3.846-3.781c.423-.006.847-.021,1.27-.021h66.773c.423,0,.847.021,1.27.025a4.179,4.179,0,0,1,3.668,3.041,8.454,8.454,0,0,1,.23,1.826c.019,6.276.009,12.551.027,18.827a2.147,2.147,0,0,1-.594,1.553q-4.958,5.483-9.884,11-7.757,8.635-15.518,17.269c-1.184,1.317-2.374,2.629-3.555,3.949C735.061-3982.352,734.837-3982.047,734.484-3981.608Z" transform="translate(-1603.766 11281.98)" fill="url(#linear-gradient)"/>
    <path id="Path_2352" data-name="Path 2352" d="M115.741-4030.346q0-20.041,0-40.083c0-.539,0-1.078.019-1.617a4.612,4.612,0,0,1,1.133-2.842,2.978,2.978,0,0,1,2.3-1.153c.269-.008.539-.015.808-.016,6.932,0,13.864.016,20.8-.01a9.6,9.6,0,0,1,5.568,1.946,6.973,6.973,0,0,1,.853.776,2.52,2.52,0,0,1,.805,1.964c-.026,1,0,2,0,3q.018,38.985.035,77.97c0,.616,0,1.233-.033,1.847a4.571,4.571,0,0,1-1.2,2.813,2.965,2.965,0,0,1-2.326,1.093c-.308,0-.616,0-.924,0H119.889a3.924,3.924,0,0,1-4.135-3.767c-.059-.611-.05-1.23-.05-1.846q0-20.041,0-40.083Z" transform="translate(-1073.766 11315.417)" fill="url(#linear-gradient)"/>
    <path id="Path_2353" data-name="Path 2353" d="M145.268-4594.165a16.236,16.236,0,0,1-16.361,16.351,16.378,16.378,0,0,1-16.412-16.452,16.371,16.371,0,0,1,16.4-16.355A16.236,16.236,0,0,1,145.268-4594.165Z" transform="translate(-1070.783 11812.646)" fill="url(#linear-gradient)"/>
    <path id="Path_2354" data-name="Path 2354" d="M2833.386-3743.826q-8.313,0-16.626,0a11.25,11.25,0,0,1-3.415-.466,9.443,9.443,0,0,1-6.627-8.929q-.036-4.156,0-8.312a9.385,9.385,0,0,1,7.964-9.232,14.308,14.308,0,0,1,1.835-.16q16.915-.015,33.83-.008a9.553,9.553,0,0,1,7.081,2.848,9.152,9.152,0,0,1,2.732,6.427c.06,2.846.083,5.7,0,8.542a9.361,9.361,0,0,1-7.857,9.1,16.319,16.319,0,0,1-2.41.183C2844.394-3743.818,2838.89-3743.826,2833.386-3743.826Zm.074-4.331q8.084,0,16.169,0a13.308,13.308,0,0,0,1.84-.115,4.941,4.941,0,0,0,3.678-2.513,5.684,5.684,0,0,0,.734-2.989q0-3.579,0-7.159c0-.154,0-.308-.006-.462a5.282,5.282,0,0,0-5.138-5.221c-.269-.017-.539-.012-.808-.012q-16.515,0-33.031,0c-.308,0-.617,0-.923.023a5.24,5.24,0,0,0-4.9,4.449,6.921,6.921,0,0,0-.074,1.15q-.008,3.637,0,7.274c0,.116,0,.231,0,.347a5.221,5.221,0,0,0,4.786,5.175c.5.044,1,.054,1.5.054Q2825.376-3748.154,2833.461-3748.157Z" transform="translate(-3576.857 11031.587)" fill="url(#linear-gradient)"/>
    <path id="Path_2355" data-name="Path 2355" d="M1996.364-3743.825q-8.371,0-16.742,0a11.422,11.422,0,0,1-3.192-.416,9.458,9.458,0,0,1-6.8-9.028q.023-4.1,0-8.2a9.409,9.409,0,0,1,7.9-9.285,13.21,13.21,0,0,1,1.834-.171q17.031-.015,34.062,0a9.42,9.42,0,0,1,5.057,1.378,9.214,9.214,0,0,1,4.582,7.828c.117,2.881.114,5.775.009,8.657a9.325,9.325,0,0,1-8.021,9.069,19.682,19.682,0,0,1-2.3.159Q2004.562-3743.812,1996.364-3743.825Zm.022-22.807h-16.169c-.385,0-.771-.012-1.155.014a5.4,5.4,0,0,0-3.281,1.259,5.179,5.179,0,0,0-1.854,4.067c-.007,2.117,0,4.234,0,6.351,0,.578-.017,1.156.01,1.732a5.161,5.161,0,0,0,4.491,4.952,9.845,9.845,0,0,0,1.38.1q16.573.008,33.147,0a7.835,7.835,0,0,0,1.606-.144,4.986,4.986,0,0,0,4.059-3.936,7.961,7.961,0,0,0,.179-1.831c.021-2.194.011-4.388.011-6.582,0-.308.005-.617-.02-.923a5.279,5.279,0,0,0-5.2-5.044c-.384-.02-.77-.01-1.155-.01Z" transform="translate(-2798.242 11031.586)" fill="url(#linear-gradient)"/>
    <path id="Path_2356" data-name="Path 2356" d="M3670.492-3743.834q-8.317,0-16.635,0a11.014,11.014,0,0,1-3.525-.516,9.465,9.465,0,0,1-6.47-8.822c-.03-2.81-.052-5.622.008-8.432a9.348,9.348,0,0,1,7.92-9.162,15.314,15.314,0,0,1,1.95-.168q16.867-.015,33.733-.008a9.641,9.641,0,0,1,7.095,2.831,9.31,9.31,0,0,1,2.2,3.49,4.939,4.939,0,0,1,.336,1.688q-.005,5.484.008,10.969a5.035,5.035,0,0,1-.385,1.911,9.241,9.241,0,0,1-7.3,6.027,13.165,13.165,0,0,1-2.3.18Q3678.81-3743.819,3670.492-3743.834Zm.107-22.807h-5.659q-5.486,0-10.972,0a6.883,6.883,0,0,0-2.274.323,5.2,5.2,0,0,0-3.538,4.922c-.036,1.539-.009,3.079-.008,4.619,0,1.155-.028,2.311.014,3.464a5.185,5.185,0,0,0,4.632,5.073,9.839,9.839,0,0,0,1.267.073q16.515.006,33.031,0a10.305,10.305,0,0,0,1.608-.124,5.048,5.048,0,0,0,4.131-3.86,8.209,8.209,0,0,0,.189-1.714c.023-2.155.012-4.311.013-6.467,0-.346.008-.693-.006-1.039a5.277,5.277,0,0,0-5.1-5.252c-.383-.026-.77-.014-1.155-.015Z" transform="translate(-4355.535 11031.595)" fill="url(#linear-gradient)"/>
    <path id="Path_2357" data-name="Path 2357" d="M3806.526-3302.184a2.3,2.3,0,0,0,.5.179,7.382,7.382,0,0,0,.922.036q9.816,0,19.633,0a2.049,2.049,0,0,0,1.446-.249,3.565,3.565,0,0,0,.125-1.48q.01-15.3.009-30.6a8.848,8.848,0,0,1,.034-1.268,2.15,2.15,0,0,1,3.131-1.649,1.943,1.943,0,0,1,1.118,1.639c.027.344.027.692.027,1.038q.005,16.975.007,33.949c0,.308-.014.616-.014.923a2.1,2.1,0,0,1-2,2.011c-.269.019-.539.014-.808.014q-12.935,0-25.87,0a5.936,5.936,0,0,1-.921-.033,2.07,2.07,0,0,1-1.776-1.854c-.012-.346-.026-.692-.026-1.038q0-16.974.006-33.948c0-.346-.006-.695.027-1.038a2.083,2.083,0,0,1,1.748-1.884,2.143,2.143,0,0,1,2.279,1.208,3.349,3.349,0,0,1,.243,1,10.438,10.438,0,0,1,.017,1.154q0,15.185.006,30.369A3.739,3.739,0,0,0,3806.526-3302.184Z" transform="translate(-4502.718 10628.398)" fill="url(#linear-gradient)"/>
    <path id="Path_2358" data-name="Path 2358" d="M2969.155-3302.145a3.766,3.766,0,0,0,.623.172,8.238,8.238,0,0,0,.923.022q9.7,0,19.4,0a3.12,3.12,0,0,0,1.531-.194,4.149,4.149,0,0,0,.13-.629c.024-.383.013-.769.013-1.154q0-15.185.005-30.37a8.88,8.88,0,0,1,.033-1.268,2.141,2.141,0,0,1,3.336-1.5,1.913,1.913,0,0,1,.913,1.527c.026.422.03.846.03,1.269q.005,16.744.007,33.487c0,.385.008.771-.025,1.154a2.085,2.085,0,0,1-2.02,1.99c-.268.023-.539.013-.808.013h-25.755c-.308,0-.617.01-.923-.019a2.087,2.087,0,0,1-1.871-1.888c-.017-.345-.03-.692-.03-1.038q0-16.975.008-33.949a10.075,10.075,0,0,1,.031-1.038,2.077,2.077,0,0,1,1.764-1.868,2.149,2.149,0,0,1,2.218,1.129,3.625,3.625,0,0,1,.286,1.1,9.167,9.167,0,0,1,.016,1.153q0,15.185.007,30.369A3.333,3.333,0,0,0,2969.155-3302.145Z" transform="translate(-3723.797 10628.382)" fill="url(#linear-gradient)"/>
    <path id="Path_2359" data-name="Path 2359" d="M2131.75-3302.187a2.36,2.36,0,0,0,.5.175,7.478,7.478,0,0,0,.922.036q9.817,0,19.633,0a2.06,2.06,0,0,0,1.448-.248,3.428,3.428,0,0,0,.129-1.478q.01-15.3.009-30.6a9.849,9.849,0,0,1,.028-1.269,2.144,2.144,0,0,1,3.416-1.464,1.908,1.908,0,0,1,.833,1.453c.025.383.027.769.027,1.154q0,16.859.006,33.718c0,.346.009.694-.018,1.039a2.089,2.089,0,0,1-2,2.009c-.267.024-.538.014-.808.014h-25.87a7.485,7.485,0,0,1-.808-.017,2.068,2.068,0,0,1-1.884-1.872,8.647,8.647,0,0,1-.042-1.037q0-16.974.007-33.949c0-.346.021-.692.034-1.038a2.063,2.063,0,0,1,1.865-1.9,2.121,2.121,0,0,1,2.209,1.332,3.724,3.724,0,0,1,.2,1.009c.034.382.012.769.012,1.154q0,15.127.008,30.254A3.64,3.64,0,0,0,2131.75-3302.187Z" transform="translate(-2944.875 10628.404)" fill="url(#linear-gradient)"/>
    <path id="Path_2360" data-name="Path 2360" d="M-2010.5-5212.02a4.93,4.93,0,0,1-.146-.665c-.021-.346-.012-.692-.012-1.039,0-4.233-.012-8.468.011-12.7.03-5.5.088-11.006.139-16.509.011-1.228.106-1.336,1.307-1.337q7.911-.012,15.822,0c.077,0,.154,0,.231,0,.922.04,1.043.151,1.057,1.105.015,1.04.014,2.079-.01,3.118-.014.583-.182.725-.78.756-.307.016-.616.008-.924.008q-4.562,0-9.124,0c-1.4,0-1.44.042-1.444,1.41,0,1.887.005,3.772.01,5.658,0,.154,0,.308.007.462.042.791.153.926.981.93,2.733.017,5.467.009,8.2.011.346,0,.694-.008,1.039.014.469.029.65.174.659.625q.037,1.846.011,3.694c0,.386-.19.539-.589.57-.306.024-.615.019-.923.019q-3.869,0-7.738,0c-.457,0-.914.027-1.4.042a2.822,2.822,0,0,0-.206.7c-.008,2.5,0,5,.01,7.5a1.231,1.231,0,0,0,.082.313,1.145,1.145,0,0,0,.974.294c.847.01,1.694.006,2.541.006q3.523,0,7.045,0c.458,0,.915.034,1.4.053a3.465,3.465,0,0,1,.223.686,16.3,16.3,0,0,1-.169,4.156,2.305,2.305,0,0,1-1.212.145c-2.194.008-4.389,0-6.583,0q-4.562,0-9.124,0C-2009.555-5211.986-2009.974-5212.006-2010.5-5212.02Z" transform="translate(904.121 12402.055)" fill="url(#linear-gradient)"/>
    <path id="Path_2361" data-name="Path 2361" d="M-3236.05-5225.852a1.892,1.892,0,0,0-.3,1.249c0,2.079,0,4.157.01,6.235.009,1.244.085,1.324,1.306,1.328,3.2.011,6.39,0,9.585.008a2.591,2.591,0,0,1,1.323.159,16.4,16.4,0,0,1,0,4.751,2.559,2.559,0,0,1-1.215.127q-4.388.01-8.777,0c-2.348,0-4.7,0-7.045,0a2.738,2.738,0,0,1-1.3-.155,5.289,5.289,0,0,1-.107-.644c-.02-.384-.011-.769-.01-1.154q.023-14.375.046-28.751c0-1.578,0-1.582,1.614-1.583q7.679,0,15.359,0c1.568,0,1.569.007,1.57,1.624,0,.885.01,1.771-.012,2.656-.013.53-.168.667-.707.7-.307.019-.616.01-.924.011h-8.777c-.269,0-.539,0-.808,0-1.031.026-1.174.129-1.181,1.111-.014,2.117,0,4.234.026,6.351a4.086,4.086,0,0,0,.166.818,2.9,2.9,0,0,0,1.455.186c2.656.008,5.312,0,7.969,0,1.41,0,1.412.005,1.419,1.391,0,.924.014,1.848,0,2.771-.011.6-.156.724-.766.753-.269.013-.539.006-.808.006q-3.927,0-7.853,0C-3235.215-5225.894-3235.633-5225.867-3236.05-5225.852Z" transform="translate(2050.019 12402.06)" fill="url(#linear-gradient)"/>
    <path id="Path_2362" data-name="Path 2362" d="M2482.711-4774.453c.136-2.711.277-5.517.417-8.321.015-.308.027-.615.043-.923.095-1.806.15-3.615.3-5.416.115-1.377.349-2.745.531-4.117q.417-3.145.836-6.289c.261-1.943.53-3.886.79-5.829.2-1.524.4-3.05.6-4.574.26-1.943.529-3.886.789-5.829.2-1.524.4-3.05.6-4.575.181-1.372.368-2.743.55-4.115q.3-2.286.6-4.573c.187-1.41.385-2.818.564-4.229a3.155,3.155,0,0,0-2.066-3.364,3.086,3.086,0,0,0-3.909,1.927,7.322,7.322,0,0,0-.234,1.012c-.337,2.049-.664,4.1-1,6.148-.062.379-.128.759-.213,1.134a2.085,2.085,0,0,1-2.546,1.742,2.051,2.051,0,0,1-1.562-2.451c.277-1.863.583-3.723.881-5.583.11-.684.236-1.364.35-2.047a6.888,6.888,0,0,1,5.237-5.965,7.13,7.13,0,0,1,9.028,5.056,7.459,7.459,0,0,1,.2,2.171c-.052,1.188-.2,2.375-.346,3.557-.273,2.174-.575,4.344-.869,6.516-.278,2.057-.566,4.113-.838,6.171-.267,2.02-.512,4.043-.78,6.063-.344,2.591-.705,5.18-1.052,7.771-.265,1.981-.515,3.965-.777,5.947-.277,2.1-.58,4.189-.832,6.288-.2,1.641-.386,3.286-.486,4.935-.145,2.381-.21,4.767-.3,7.15-.085,2.153-.158,4.307-.252,6.459a3.525,3.525,0,0,1-.188,1.013,2.077,2.077,0,0,1-2.274,1.382,2,2,0,0,1-1.786-1.953C2482.681-4772.895,2482.711-4773.627,2482.711-4774.453Z" transform="translate(-3270.902 12026.922)" fill="url(#linear-gradient)"/>
    <path id="Path_2363" data-name="Path 2363" d="M3760.3-4231.059c1,0,2-.04,3,.007a22.026,22.026,0,0,1,8.285,1.853,12.647,12.647,0,0,1,5.116,4.025,10.967,10.967,0,0,1,2.027,5.449c.187,1.836.41,3.669.613,5.5.181,1.644.354,3.289.532,4.933.128,1.186.252,2.371.394,3.556a2.875,2.875,0,0,1-.1,1.476,2.155,2.155,0,0,1-2.066,1.391,2.1,2.1,0,0,1-1.976-1.655,11.978,11.978,0,0,1-.208-1.37c-.185-1.759-.35-3.521-.538-5.28-.192-1.8-.4-3.593-.6-5.389-.1-.917-.211-1.835-.29-2.754a6.561,6.561,0,0,0-2.762-4.863,11.8,11.8,0,0,0-4.048-1.916,20.139,20.139,0,0,0-5.474-.734c-1.579.016-3.159-.028-4.736.021a18.007,18.007,0,0,0-6.617,1.439,8.906,8.906,0,0,0-3.172,2.261,5.976,5.976,0,0,0-1.534,3.178c-.171,1.218-.3,2.442-.429,3.666-.224,2.1-.437,4.208-.652,6.312-.172,1.684-.348,3.367-.51,5.052a2.122,2.122,0,0,1-1.009,1.723,2.152,2.152,0,0,1-3.236-1.579,3.031,3.031,0,0,1,0-.691c.175-1.683.362-3.365.54-5.048.2-1.874.39-3.749.589-5.623.162-1.53.256-3.072.512-4.586a10.656,10.656,0,0,1,4.015-6.674,15.371,15.371,0,0,1,5.43-2.738,23.409,23.409,0,0,1,6.488-.955c.808,0,1.617,0,2.426,0Z" transform="translate(-4445.251 11459.602)" fill="url(#linear-gradient)"/>
    <path id="Path_2364" data-name="Path 2364" d="M2946.548-4205.394a2.162,2.162,0,0,1-2.982,2.2,2,2,0,0,1-1.249-1.676c-.17-1.3-.313-2.6-.457-3.9q-.33-2.981-.647-5.964c-.169-1.567-.364-3.133-.5-4.7a6.6,6.6,0,0,0-2.742-4.873,11.727,11.727,0,0,0-4.043-1.925,20.1,20.1,0,0,0-5.473-.74c-1.579.014-3.158-.028-4.736.019a18.1,18.1,0,0,0-6.619,1.429,8.877,8.877,0,0,0-3.1,2.167,6.053,6.053,0,0,0-1.654,3.483c-.154,1.375-.3,2.752-.448,4.128q-.3,2.811-.6,5.621c-.181,1.721-.357,3.443-.541,5.164a2.049,2.049,0,0,1-1.181,1.729,2.14,2.14,0,0,1-3.056-1.77,2.858,2.858,0,0,1,.007-.576c.188-1.721.39-3.439.57-5.16.2-1.875.365-3.751.56-5.625.159-1.53.251-3.074.527-4.584a10.742,10.742,0,0,1,4.076-6.639,16.065,16.065,0,0,1,6.229-2.909,23.272,23.272,0,0,1,5.48-.716c1.81-.009,3.621-.047,5.429.015a22.229,22.229,0,0,1,8.3,1.794,13.553,13.553,0,0,1,3.679,2.358,10.761,10.761,0,0,1,3.578,7.157c.178,1.837.409,3.669.612,5.5.177,1.605.348,3.212.523,4.817q.206,1.893.418,3.784C2946.526-4205.625,2946.54-4205.471,2946.548-4205.394Z" transform="translate(-3669.701 11459.744)" fill="url(#linear-gradient)"/>
    <path id="Path_2365" data-name="Path 2365" d="M-2403.982-5211.158a34.571,34.571,0,0,1-5.986-.036,4.209,4.209,0,0,1-.126-.624c-.023-.384-.012-.77-.011-1.154q.019-11.774.037-23.55c0-.422-.01-.846-.044-1.267a.538.538,0,0,0-.525-.519c-.344-.032-.691-.042-1.037-.042-1.77,0-3.541,0-5.311,0-.27,0-.539.007-.808,0-.719-.033-.851-.155-.872-.913-.022-.808-.012-1.617-.008-2.424a10.319,10.319,0,0,1,.042-1.036.524.524,0,0,1,.527-.512,7.531,7.531,0,0,1,.807-.03q10.391,0,20.782,0c1.274,0,1.289.022,1.3,1.287.005.808.007,1.616,0,2.424-.01,1.168-.042,1.2-1.259,1.205-1.886.006-3.772,0-5.657,0-.308,0-.617-.008-.924.011-.627.037-.792.2-.856.844a6.6,6.6,0,0,0-.02.692q.03,5.714.063,11.429.039,6.52.082,13.042A1.964,1.964,0,0,1-2403.982-5211.158Z" transform="translate(1283.645 12401.119)" fill="url(#linear-gradient)"/>
    <path id="Path_2366" data-name="Path 2366" d="M-2881.583-5216.239a2.943,2.943,0,0,0,1.523.219c2.578.008,5.156,0,7.733.008a1.959,1.959,0,0,1,1.213.171,16.908,16.908,0,0,1-.011,4.626,2.252,2.252,0,0,1-1.209.146q-4.675.01-9.35,0c-1.655,0-3.309,0-4.964,0-.376,0-.753-.036-1.168-.058-.057-.29-.119-.507-.137-.726-.022-.268-.01-.538-.009-.808q.016-14.6.034-29.2c0-1.42.006-1.423,1.389-1.428q1.674-.007,3.347,0c.269,0,.539,0,.807.028a.553.553,0,0,1,.545.5,6.3,6.3,0,0,1,.052.8c.046,4.5.1,9,.13,13.5.023,3.617.012,7.233.021,10.849C-2881.638-5217.15-2881.6-5216.7-2881.583-5216.239Z" transform="translate(1720.165 12401.135)" fill="url(#linear-gradient)"/>
    <path id="Path_2367" data-name="Path 2367" d="M3035.345-5217.358c.411.44.713.785,1.035,1.107q3.344,3.352,6.694,6.7a7.272,7.272,0,0,1,.782.847,2.016,2.016,0,0,1,.426,1.625,2.129,2.129,0,0,1-3.42,1.3,7.445,7.445,0,0,1-.757-.711q-3.391-3.386-6.782-6.774a3.115,3.115,0,0,0-1.088-.88,2.791,2.791,0,0,0-1.059.846q-3.4,3.382-6.782,6.774a8.415,8.415,0,0,1-.753.714,2.126,2.126,0,0,1-3.446-1.22,2.034,2.034,0,0,1,.456-1.725,8.25,8.25,0,0,1,.79-.841q3.346-3.35,6.693-6.7a2.984,2.984,0,0,0,.868-1.079,2.817,2.817,0,0,0-.856-1.068q-3.382-3.4-6.774-6.782a7.025,7.025,0,0,1-.78-.848,2.106,2.106,0,0,1,1.126-3.329,1.778,1.778,0,0,1,1.237.058,3.887,3.887,0,0,1,1.285.959q3.43,3.43,6.862,6.857c.324.323.668.625.956.893.583-.02.82-.411,1.112-.7,1.451-1.434,2.889-2.881,4.332-4.323.926-.925,1.848-1.854,2.78-2.773a5.284,5.284,0,0,1,.785-.676,1.968,1.968,0,0,1,2.545.182,1.965,1.965,0,0,1,.461,2.512,4.319,4.319,0,0,1-.783.988c-1.788,1.806-3.589,3.6-5.385,5.395-.6.6-1.2,1.193-1.794,1.8C3035.872-5217.991,3035.661-5217.723,3035.345-5217.358Z" transform="translate(-3775.401 12388.301)" fill="url(#linear-gradient)"/>
    <path id="Path_2368" data-name="Path 2368" d="M3865.952-5214.31a3.022,3.022,0,0,0-1.215.922q-3.4,3.38-6.78,6.771a6.615,6.615,0,0,1-.85.778,2.142,2.142,0,0,1-3.316-1.236,2.12,2.12,0,0,1,.484-1.829,7.184,7.184,0,0,1,.712-.755q3.386-3.39,6.773-6.778a2.8,2.8,0,0,0,.852-1.068,3.048,3.048,0,0,0-.873-1.078q-3.463-3.477-6.938-6.941a3.413,3.413,0,0,1-.965-1.409,1.945,1.945,0,0,1,.6-2.092,1.852,1.852,0,0,1,2.229-.373,5.276,5.276,0,0,1,1.176.91c2.3,2.274,4.577,4.567,6.866,6.849.323.322.668.622.956.889.583-.027.821-.417,1.111-.707q3.437-3.419,6.86-6.854a7.985,7.985,0,0,1,.937-.854,1.914,1.914,0,0,1,1.735-.375,2.152,2.152,0,0,1,1.167,3.343,6.985,6.985,0,0,1-.782.846q-3.385,3.391-6.772,6.779a2.825,2.825,0,0,0-.859,1.075,2.963,2.963,0,0,0,.863,1.072q3.341,3.352,6.692,6.7c.218.218.435.436.647.659a2.232,2.232,0,0,1,.48,2.26,1.663,1.663,0,0,1-1.258,1.234,2.248,2.248,0,0,1-2.254-.517c-.22-.216-.44-.431-.657-.649q-3.3-3.308-6.61-6.616C3866.645-5213.68,3866.3-5213.983,3865.952-5214.31Z" transform="translate(-4550.783 12388.422)" fill="url(#linear-gradient)"/>
    <path id="Path_2369" data-name="Path 2369" d="M2225.764-4579.155a11.129,11.129,0,0,1-11.223-11.189,11.224,11.224,0,0,1,11.2-11.132A11.265,11.265,0,0,1,2236.9-4590.3,11.14,11.14,0,0,1,2225.764-4579.155Zm-6.975-11.1a6.84,6.84,0,0,0,6.9,6.9,6.823,6.823,0,0,0,6.99-6.929,6.9,6.9,0,0,0-6.958-6.97A7,7,0,0,0,2218.789-4590.256Z" transform="translate(-3026.049 11804.139)" fill="url(#linear-gradient)"/>
    <path id="Path_2370" data-name="Path 2370" d="M3044.259-4592.311a10.978,10.978,0,0,1,11.222,11.178,11.1,11.1,0,0,1-11.187,11.146,11.136,11.136,0,0,1-11.169-11.288A10.978,10.978,0,0,1,3044.259-4592.311Zm.086,18.073a6.909,6.909,0,0,0,6.913-7.048,6.857,6.857,0,0,0-7-6.849,6.86,6.86,0,0,0-6.914,6.932A6.908,6.908,0,0,0,3044.345-4574.237Z" transform="translate(-3787.472 11795.62)" fill="url(#linear-gradient)"/>
    <path id="Path_2371" data-name="Path 2371" d="M3878-4570.437a11.069,11.069,0,0,1-11.128-11.2,11.133,11.133,0,0,1,11.286-11.157,11.117,11.117,0,0,1,11.069,11.137A11.067,11.067,0,0,1,3878-4570.437Zm.033-4.24a7,7,0,0,0,6.994-6.958,6.923,6.923,0,0,0-7.013-6.937,6.847,6.847,0,0,0-6.919,6.9A6.951,6.951,0,0,0,3878.029-4574.678Z" transform="translate(-4562.997 11796.061)" fill="url(#linear-gradient)"/>
    <path id="Path_2372" data-name="Path 2372" d="M-2574.736-5211.186a32.462,32.462,0,0,1-5.9-.047,4.8,4.8,0,0,1-.125-.623c-.024-.306-.013-.615-.012-.922q.023-14.533.047-29.065c0-1.453.006-1.456,1.475-1.458,1.269,0,2.538-.011,3.807.01.665.011.784.155.825.834.011.191.007.384.007.577q.033,14.59.062,29.181A3.133,3.133,0,0,1-2574.736-5211.186Z" transform="translate(1434.422 12401.15)" fill="url(#linear-gradient)"/>
    <path id="Path_2373" data-name="Path 2373" d="M2105.99-4231.019c.385,0,.771-.02,1.154,0a2.033,2.033,0,0,1,2,1.981,2.048,2.048,0,0,1-1.767,2.207,6.831,6.831,0,0,1-1.151.048,19.208,19.208,0,0,0-6.321,1.166,11.033,11.033,0,0,0-2.641,1.4,6.864,6.864,0,0,0-2.92,5.145c-.283,2.829-.587,5.656-.875,8.484-.183,1.8-.344,3.6-.533,5.393a3.894,3.894,0,0,1-.252,1.113,2.068,2.068,0,0,1-2.263,1.215,2.031,2.031,0,0,1-1.745-1.994,7.853,7.853,0,0,1,.036-1.152c.193-1.835.408-3.667.6-5.5s.354-3.672.546-5.506c.124-1.184.241-2.371.426-3.546a10.711,10.711,0,0,1,4.583-7.193,16.744,16.744,0,0,1,6.663-2.766A21.5,21.5,0,0,1,2105.99-4231.019Z" transform="translate(-2908.965 11459.557)" fill="url(#linear-gradient)"/>
    <path id="Path_2374" data-name="Path 2374" d="M3881.523-4043.478c.153-1.834.307-3.594.444-5.356.116-1.494.2-2.99.323-4.484a6.315,6.315,0,0,1,.241-1.469,1.945,1.945,0,0,1,2.285-1.311,1.955,1.955,0,0,1,1.729,1.861,22.485,22.485,0,0,1-.08,2.418c-.109,1.533-.259,3.063-.373,4.6-.106,1.417-.179,2.838-.285,4.256a7.869,7.869,0,0,1-.194,1.252,2.046,2.046,0,0,1-2.132,1.575,2,2,0,0,1-1.955-1.911C3881.508-4042.549,3881.523-4043.048,3881.523-4043.478Z" transform="translate(-4576.624 11296.864)" fill="url(#linear-gradient)"/>
    <path id="Path_2375" data-name="Path 2375" d="M2233.365-4053.522c-.086,1.3-.163,2.61-.259,3.914q-.194,2.646-.413,5.291c-.062.766-.125,1.534-.219,2.3a2.087,2.087,0,0,1-2.084,1.927,2.173,2.173,0,0,1-2.145-2.019,4.387,4.387,0,0,1,.014-.691c.064-.882.13-1.764.2-2.646.123-1.456.259-2.911.377-4.367.1-1.265.191-2.531.284-3.8.014-.191.01-.386.036-.576a2.07,2.07,0,0,1,2.214-1.894,2.081,2.081,0,0,1,2.015,2.1c-.012.153,0,.308,0,.462Z" transform="translate(-3038.787 11296.83)" fill="url(#linear-gradient)"/>
    <path id="Path_2376" data-name="Path 2376" d="M3047.739-4043.363c.148-1.784.3-3.506.432-5.229.118-1.532.208-3.067.329-4.6a7.73,7.73,0,0,1,.22-1.476,1.951,1.951,0,0,1,2.323-1.412,1.951,1.951,0,0,1,1.718,1.869,24.259,24.259,0,0,1-.08,2.534c-.1,1.456-.256,2.908-.367,4.364s-.184,2.914-.292,4.37a7.62,7.62,0,0,1-.2,1.251,2.05,2.05,0,0,1-2.137,1.568,2,2,0,0,1-1.949-1.917C3047.728-4042.5,3047.739-4042.961,3047.739-4043.363Z" transform="translate(-3801.062 11296.848)" fill="url(#linear-gradient)"/>
    <path id="Path_2377" data-name="Path 2377" d="M4103.052-4043.421c0,.557.028.943-.006,1.323a2.018,2.018,0,0,1-1.775,1.823,2.063,2.063,0,0,1-2.271-1.364,5.051,5.051,0,0,1-.218-1.127c-.185-2.217-.343-4.435-.528-6.652-.108-1.3-.249-2.6-.375-3.893a2.924,2.924,0,0,1,.171-1.58,2.074,2.074,0,0,1,2.263-1.205,2.042,2.042,0,0,1,1.753,1.731c.092.606.162,1.218.212,1.829.183,2.217.349,4.435.532,6.652C4102.882-4045,4102.981-4044.128,4103.052-4043.421Z" transform="translate(-4777.847 11296.859)" fill="url(#linear-gradient)"/>
    <path id="Path_2378" data-name="Path 2378" d="M3269.357-4043.307c0,.3.025.686-.005,1.068a2.022,2.022,0,0,1-1.753,1.853,2.051,2.051,0,0,1-2.317-1.463,5.467,5.467,0,0,1-.191-1.02c-.1-1.187-.182-2.377-.282-3.565-.119-1.418-.252-2.834-.376-4.252-.1-1.111-.226-2.221-.275-3.333a2.1,2.1,0,0,1,1.575-2.15,2.1,2.1,0,0,1,2.435,1.091,1.977,1.977,0,0,1,.2.654c.1.84.169,1.684.246,2.526.126,1.379.254,2.757.373,4.136C3269.114-4046.307,3269.23-4044.85,3269.357-4043.307Z" transform="translate(-4002.371 11296.969)" fill="url(#linear-gradient)"/>
  </g>
</svg>
