<svg xmlns="http://www.w3.org/2000/svg" xmlns:xlink="http://www.w3.org/1999/xlink" width="24" height="23.958" viewBox="0 0 24 23.958">
  <defs>
    <linearGradient id="linear-gradient" y1="1" x2="0.998" y2="-0.002" gradientUnits="objectBoundingBox">
      <stop offset="0.005" stop-color="#e49e45"/>
      <stop offset="1" stop-color="#e0b154"/>
    </linearGradient>
    <linearGradient id="linear-gradient-2" x2="0.998" y2="-0.002" xlink:href="#linear-gradient"/>
  </defs>
  <g id="statistics_icon" transform="translate(0 -0.998)">
    <path id="Path_2432" data-name="Path 2432" d="M21.874,15.3a2.8,2.8,0,0,0-2.82-2.32c-2-.006-4,0-6,0a.949.949,0,0,1-1.05-1.057V5.984a3.087,3.087,0,0,0-.075-.719A2.8,2.8,0,0,0,8.448,3.189a11.054,11.054,0,0,0-8.323,9.08A2.015,2.015,0,0,1,0,12.938v.188a.059.059,0,0,1,0,.094v.137a.366.366,0,0,1,0,.281v.7c.044.044.019.094.025.138v.013c0,.044.013.087-.025.125v.238c.056.238.025.475.063.713A11.175,11.175,0,0,0,.7,17.978,11,11,0,0,0,4.033,22.53a10.89,10.89,0,0,0,4.252,2.139,10.219,10.219,0,0,0,1.838.288h.188a.12.12,0,0,1,.094-.025h.113a.086.086,0,0,1,.075.025h.844c.038-.038.088-.019.138-.025h.113a.086.086,0,0,1,.075.025H11.9c.013-.05.056-.044.094-.044a8,8,0,0,0,1.388-.206,10.96,10.96,0,0,0,8.342-7.867A3.061,3.061,0,0,0,21.874,15.3ZM2.139,16.12A9.152,9.152,0,0,1,8.917,5a.943.943,0,0,1,1.213.95v6.059a2.814,2.814,0,0,0,2.852,2.845H18.96a.949.949,0,0,1,1.019,1.3A9.2,9.2,0,0,1,2.139,16.12Z" fill="url(#linear-gradient)"/>
    <path id="Path_2433" data-name="Path 2433" d="M24,7.885c-.038-.156-.075-.313-.125-.463a9.308,9.308,0,0,0-6.3-6.291,2.853,2.853,0,0,0-3.7,2.726c-.006,1.463-.006,2.933,0,4.4a2.87,2.87,0,0,0,2.87,2.852c1.463.006,2.92.006,4.384,0a2.874,2.874,0,0,0,2.764-2.089A.957.957,0,0,1,24,8.673V8.535a.365.365,0,0,1,0-.281ZM21.055,9.242h-4.24a1,1,0,0,1-1.063-1.051V3.958a1,1,0,0,1,1.382-1,7.509,7.509,0,0,1,4.927,4.928A1,1,0,0,1,21.055,9.242Z" fill="url(#linear-gradient-2)"/>
  </g>
</svg>
