<svg xmlns="http://www.w3.org/2000/svg" width="1042.049" height="469.107" viewBox="0 0 1042.049 469.107">
  <g id="steps" transform="translate(-178.987 -1274.893)">
    <g id="Group">
      <text id="Invite_your" data-name="Invite your" transform="translate(231.92 1641)" fill="#551948" font-size="32" font-family="Poppins-Medium, Poppins" font-weight="500"><tspan x="0" y="0">Invite your</tspan></text>
      <text id="Friends_to" data-name="Friends to" transform="translate(237.424 1687)" fill="#551948" font-size="32" font-family="Poppins-Medium, Poppins" font-weight="500"><tspan x="0" y="0">Friends to</tspan></text>
      <text id="sign_up" data-name="sign up" transform="translate(256.608 1733)" fill="#551948" font-size="32" font-family="Poppins-Medium, Poppins" font-weight="500"><tspan x="0" y="0">sign up</tspan></text>
    </g>
    <g id="Group-2" data-name="Group">
      <text id="Your_Friends" data-name="Your Friends" transform="translate(596.168 1641)" fill="#551948" font-size="32" font-family="Poppins-Medium, Poppins" font-weight="500"><tspan x="0" y="0">Your Friends</tspan></text>
      <text id="Download_app" data-name="Download app" transform="translate(577.032 1688)" fill="#551948" font-size="32" font-family="Poppins-Medium, Poppins" font-weight="500"><tspan x="0" y="0">Download app</tspan></text>
    </g>
    <g id="Group-3" data-name="Group">
      <text id="You_and_your" data-name="You and your" transform="translate(990.28 1641)" fill="#551948" font-size="32" font-family="Poppins-Medium, Poppins" font-weight="500"><tspan x="0" y="0">You and your</tspan></text>
      <text id="Friends_get" data-name="Friends get" transform="translate(1007.912 1687)" fill="#551948" font-size="32" font-family="Poppins-Medium, Poppins" font-weight="500"><tspan x="0" y="0">Friends get</tspan></text>
      <text id="rewarded" transform="translate(1019.224 1733)" fill="#551948" font-size="32" font-family="Poppins-Medium, Poppins" font-weight="500"><tspan x="0" y="0">rewarded</tspan></text>
    </g>
    <g id="Group_3541" data-name="Group 3541" transform="translate(-47.281 677.143)">
      <path id="template" d="M1127.39,597.755a140.33,140.33,0,0,0-91.093,33.407c-12.639,10.722-25.6,21.056-39.053,30.739l-2.58,1.857A97.828,97.828,0,0,1,941.721,682.1h-.027q-.688.029-1.377.049l-.3.008q-.556.014-1.111.021c-.188,0-.376.006-.564.007h-1.678c-.19,0-.38,0-.569-.007q-.554-.008-1.108-.021l-.3-.008q-.688-.02-1.376-.049h-.028a97.832,97.832,0,0,1-52.938-18.347l-2.58-1.857c-13.451-9.683-26.415-20.017-39.053-30.739a140.329,140.329,0,0,0-91.093-33.407h-.69a140.329,140.329,0,0,0-91.093,33.407c-12.639,10.722-25.6,21.056-39.053,30.739l-2.58,1.857A97.83,97.83,0,0,1,561.277,682.1h-.036q-.684.029-1.368.048l-.306.009c-.367.009-.733.016-1.1.021-.192,0-.384.006-.576.007h-1.677l-.558-.007c-.373-.006-.747-.012-1.119-.022l-.285-.008q-.693-.02-1.386-.049h-.021A97.828,97.828,0,0,1,499.9,663.758l-2.58-1.857c-13.452-9.683-26.414-20.017-39.053-30.738a140.9,140.9,0,1,0,0,214.977c12.639-10.722,25.6-21.056,39.053-30.739l2.58-1.857A97.832,97.832,0,0,1,552.836,795.2h.038q.684-.029,1.368-.048l.3-.009q.551-.013,1.1-.021c.192,0,.383-.006.575-.007h1.677c.186,0,.373,0,.559.007q.559.008,1.116.021l.288.008q.693.02,1.385.049h.019a97.83,97.83,0,0,1,52.944,18.347l2.58,1.857c13.451,9.683,26.414,20.016,39.053,30.738a140.329,140.329,0,0,0,91.093,33.407h.69a140.329,140.329,0,0,0,91.093-33.407c12.639-10.722,25.6-21.056,39.053-30.739l2.58-1.857A97.833,97.833,0,0,1,933.291,795.2h.027c.459-.02.918-.035,1.377-.049l.3-.009q.555-.014,1.111-.021l.564-.007h1.677c.19,0,.38,0,.569.007.369.006.739.012,1.108.021l.3.009q.688.02,1.377.049h.028a97.832,97.832,0,0,1,52.938,18.347l2.58,1.857c13.451,9.683,26.415,20.016,39.053,30.738a140.9,140.9,0,1,0,91.093-248.383Z" fill="#e03c75"/>
    </g>
    <path id="Icon_awesome-user-friends" data-name="Icon awesome-user-friends" d="M32.3,39.934A18.842,18.842,0,1,0,13.459,21.092,18.842,18.842,0,0,0,32.3,39.934Zm12.92,5.383h-1.4a26.014,26.014,0,0,1-23.048,0h-1.4A19.385,19.385,0,0,0,0,64.7v4.845A8.077,8.077,0,0,0,8.075,77.62H56.526A8.077,8.077,0,0,0,64.6,69.543V64.7A19.385,19.385,0,0,0,45.223,45.317Zm35.531-5.383A16.15,16.15,0,1,0,64.6,23.784a16.15,16.15,0,0,0,16.151,16.15Zm8.075,5.383h-.639a21.215,21.215,0,0,1-14.872,0h-.639A18.685,18.685,0,0,0,63.3,47.908,24.62,24.62,0,0,1,69.984,64.7v6.46c0,.37-.084.723-.1,1.077h29.71a8.077,8.077,0,0,0,8.075-8.075A18.832,18.832,0,0,0,88.826,45.317Z" transform="translate(267 1376.75)" fill="#fff"/>
    <path id="Icon_metro-download" data-name="Icon metro-download" d="M52.071,53.356l24.75-24.75H58.258V3.856H45.883v24.75H27.321Zm22.5-10.125-6.936,6.936L92.78,59.544,52.071,74.724,11.362,59.544l25.145-9.377-6.936-6.936-27,10.125v24.75l49.5,18.563,49.5-18.563V53.356Z" transform="translate(645.93 1366.144)" fill="#fff"/>
    <path id="Icon_awesome-gifts" data-name="Icon awesome-gifts" d="M34.473,27.812a15.106,15.106,0,0,1,6.3-11.434,4.543,4.543,0,0,0-4.1-2.622H32.467l4.4-3.152a2.278,2.278,0,0,0,.53-3.2L36.064,5.546a2.278,2.278,0,0,0-3.2-.53L28.283,8.3l1.648-4.384A2.291,2.291,0,0,0,28.584.961l-2.149-.8a2.291,2.291,0,0,0-2.952,1.347L20.632,9.1,17.781,1.492A2.291,2.291,0,0,0,14.829.145l-2.149.8A2.277,2.277,0,0,0,11.348,3.9L13,8.283,8.4,5.016a2.291,2.291,0,0,0-3.2.53L3.869,7.409a2.291,2.291,0,0,0,.53,3.2l4.4,3.152H4.585A4.58,4.58,0,0,0,0,18.341V68.776a4.58,4.58,0,0,0,4.585,4.585h24.2a9.1,9.1,0,0,1-1.275-4.585V36.681a9.17,9.17,0,0,1,6.963-8.869ZM32.1,68.776a4.58,4.58,0,0,0,4.585,4.585H59.6V55.021H32.1Zm32.1,4.585H87.114A4.58,4.58,0,0,0,91.7,68.776V55.021H64.189ZM87.114,32.1H84.191a10.5,10.5,0,0,0,.63-3.41,10.24,10.24,0,0,0-10.33-10.345c-6.892,0-10.875,6.834-12.594,10.789-1.734-3.958-5.717-10.793-12.6-10.793A10.24,10.24,0,0,0,38.97,28.686a10.13,10.13,0,0,0,.63,3.41H36.68A4.58,4.58,0,0,0,32.1,36.681V50.436H59.6V32.1h2.2l.1-.029.1.029h2.192V50.44H91.7V36.681A4.58,4.58,0,0,0,87.114,32.1Zm-38.972,0a5.388,5.388,0,0,1-1.032-.688,3.517,3.517,0,0,1-1.261-2.722A3.364,3.364,0,0,1,49.3,25.219c2.679,0,5.1,3.926,6.376,6.877Zm28.541-.688a5.387,5.387,0,0,1-1.032.688H68.115c1.261-2.909,3.7-6.877,6.376-6.877a3.364,3.364,0,0,1,3.453,3.467,3.517,3.517,0,0,1-1.261,2.718Z" transform="translate(1033.301 1380.001)" fill="#fff"/>
    <g id="Ellipse_45" data-name="Ellipse 45" transform="translate(204 1299)" fill="none" stroke="#fff" stroke-width="5">
      <circle cx="117" cy="117" r="117" stroke="none"/>
      <circle cx="117" cy="117" r="114.5" fill="none"/>
    </g>
    <g id="Ellipse_46" data-name="Ellipse 46" transform="translate(583 1299)" fill="none" stroke="#fff" stroke-width="5">
      <circle cx="117" cy="117" r="117" stroke="none"/>
      <circle cx="117" cy="117" r="114.5" fill="none"/>
    </g>
    <g id="Ellipse_47" data-name="Ellipse 47" transform="translate(962 1299)" fill="none" stroke="#fff" stroke-width="5">
      <circle cx="117" cy="117" r="117" stroke="none"/>
      <circle cx="117" cy="117" r="114.5" fill="none"/>
    </g>
  </g>
</svg>
