<svg xmlns="http://www.w3.org/2000/svg" xmlns:xlink="http://www.w3.org/1999/xlink" width="23.985" height="24.003" viewBox="0 0 23.985 24.003">
  <defs>
    <linearGradient id="linear-gradient" y1="1" x2="1.001" y2="0.001" gradientUnits="objectBoundingBox">
      <stop offset="0.005" stop-color="#e49e45"/>
      <stop offset="1" stop-color="#e0b154"/>
    </linearGradient>
    <linearGradient id="linear-gradient-2" x2="1.001" y2="0.001" xlink:href="#linear-gradient"/>
    <linearGradient id="linear-gradient-3" x2="0.999" y2="-0.001" xlink:href="#linear-gradient"/>
    <linearGradient id="linear-gradient-4" x2="1" y2="0" xlink:href="#linear-gradient"/>
  </defs>
  <g id="theme_icon" transform="translate(0 -0.997)">
    <path id="Path_2434" data-name="Path 2434" d="M23.85,11.156a11.312,11.312,0,0,0-3.018-6.362A11.789,11.789,0,0,0,9.06,1.376a11.683,11.683,0,0,0-8.935,9.83A2.867,2.867,0,0,1,0,11.97v.188c.031.025.025.063.025.094v.2c0,.031,0,.056-.025.075v.8c.031.025.025.063.025.094V13.6c-.006.05.019.1-.025.138v.188c.044.225.025.463.056.695A11.752,11.752,0,0,0,9.029,24.712,14.066,14.066,0,0,0,10.87,25H11.1a.127.127,0,0,1,.094-.025h.019a.086.086,0,0,1,.075.025h.376a.252.252,0,0,1,.232,0h.138c.019-.013.031-.031.05-.038a4.142,4.142,0,0,0,3.362-5.354A4.731,4.731,0,0,0,14.326,17.8a1.6,1.6,0,0,1-.232-1.947,1.787,1.787,0,0,1,1.9-.927,2.1,2.1,0,0,1,.989.595A4.161,4.161,0,0,0,23.9,13.391,6.1,6.1,0,0,0,23.85,11.156ZM11.533,23.115a9.985,9.985,0,0,1-5.09-1.584A9.672,9.672,0,0,1,2.016,14.6,9.9,9.9,0,0,1,3.757,7.055a9.808,9.808,0,0,1,6.7-4.076,9.464,9.464,0,0,1,1.521-.106,10.034,10.034,0,0,1,8,3.788,9.7,9.7,0,0,1,2.048,4.946A4.648,4.648,0,0,1,22.1,12.89a2.074,2.074,0,0,1-1.471,1.741,2.135,2.135,0,0,1-2.3-.451A4.07,4.07,0,0,0,16.442,13.1,3.7,3.7,0,0,0,12.1,15.9a3.513,3.513,0,0,0,1.014,3.337A2.3,2.3,0,0,1,13.3,22.27,2.011,2.011,0,0,1,11.533,23.115Z" fill="url(#linear-gradient)"/>
    <path id="Path_2435" data-name="Path 2435" d="M14.814,5.508a2.811,2.811,0,1,0,2.8,2.824A2.833,2.833,0,0,0,14.814,5.508ZM14.8,9.259a.936.936,0,1,1,.946-.927A.937.937,0,0,1,14.8,9.259Z" fill="url(#linear-gradient-2)"/>
    <path id="Path_2436" data-name="Path 2436" d="M7.307,13.942a2.808,2.808,0,1,0,2.818,2.805A2.828,2.828,0,0,0,7.307,13.942Zm.006,3.744a.936.936,0,1,1,0-1.872.936.936,0,0,1,0,1.872Z" fill="url(#linear-gradient-3)"/>
    <path id="Path_2437" data-name="Path 2437" d="M7.32,6.447a2.808,2.808,0,1,0,2.8,2.824A2.832,2.832,0,0,0,7.32,6.447Zm-.013,3.744a.941.941,0,0,1-.933-.939.936.936,0,1,1,1.872.013A.924.924,0,0,1,7.307,10.192Z" fill="url(#linear-gradient-4)"/>
  </g>
</svg>
