<svg xmlns="http://www.w3.org/2000/svg" xmlns:xlink="http://www.w3.org/1999/xlink" width="23.992" height="23.987" viewBox="0 0 23.992 23.987">
  <defs>
    <linearGradient id="linear-gradient" y1="1" x2="0.642" y2="-0.358" gradientUnits="objectBoundingBox">
      <stop offset="0.005" stop-color="#e49e45"/>
      <stop offset="1" stop-color="#e0b154"/>
    </linearGradient>
    <linearGradient id="linear-gradient-2" x1="0" x2="0.4" y2="-0.6" xlink:href="#linear-gradient"/>
    <linearGradient id="linear-gradient-3" x1="0" x2="0.997" y2="-0.003" xlink:href="#linear-gradient"/>
  </defs>
  <g id="wallet_icon" transform="translate(-0.013 -0.006)">
    <path id="Path_2438" data-name="Path 2438" d="M24,13.864a.928.928,0,0,0-.921-.927c-.251-.006-.5-.013-.752,0-.169.012-.207-.038-.2-.2.006-.789.006-1.579.006-2.368A2.812,2.812,0,0,0,19.258,7.5H4.755a4.472,4.472,0,0,0-1.648.282A4.613,4.613,0,0,0,.05,11.615c0,.006-.006.006-.006.013a.8.8,0,0,0-.013.213v.031c0,.075.025.15-.019.219v7.781H.019c.038.019.031.056.038.094a4.681,4.681,0,0,0,4.717,4.028H19.251a2.808,2.808,0,0,0,2.875-2.869c0-.8.006-1.591,0-2.393,0-.138.025-.188.175-.182.257.013.514.006.771,0A.929.929,0,0,0,24,17.623C24.006,16.382,24.006,15.123,24,13.864ZM1.873,19.289c-.006-2.362-.006-4.717,0-7.079A2.808,2.808,0,0,1,4.711,9.372c2.406-.006,4.811,0,7.217,0H19.17a.958.958,0,0,1,1.077,1.084c0,.758-.006,1.516.006,2.274,0,.182-.05.213-.219.213-.852-.006-1.7-.006-2.556-.006a2.81,2.81,0,1,0,.019,5.619c.852,0,1.7.006,2.556-.006.169,0,.2.05.2.207-.006.789,0,1.579-.006,2.368a.934.934,0,0,1-1,.99H4.692A2.8,2.8,0,0,1,1.873,19.289Zm17.8-2.6H17.516a.939.939,0,1,1-.006-1.873c1.479,0,2.951,0,4.429-.006.144,0,.2.025.194.188-.013.495-.013.984,0,1.478.006.169-.031.225-.213.219C21.168,16.683,20.417,16.689,19.671,16.689Z" fill="url(#linear-gradient)"/>
    <path id="Path_2439" data-name="Path 2439" d="M14.628,5.431A.939.939,0,0,1,13.269,5.2c-.7-.927-1.4-1.861-2.092-2.788a.976.976,0,0,0-1.591-.226Q7.452,3.793,5.3,5.4a.919.919,0,0,1-1.052.113.9.9,0,0,1-.5-.883.882.882,0,0,1,.363-.683Q6.4,2.227,8.7.514A2.454,2.454,0,0,1,9.879.044c.006,0,.013-.006.019-.006.075-.025.157.019.226-.031h.564a1.6,1.6,0,0,0,.42.113,2.8,2.8,0,0,1,1.453,1.009c.739.984,1.485,1.973,2.218,2.957A.925.925,0,0,1,14.628,5.431Z" fill="url(#linear-gradient-2)"/>
    <path id="Path_2440" data-name="Path 2440" d="M20.254,5.431a.948.948,0,0,1-1.372-.251Q17.829,3.79,16.8,2.393a1.112,1.112,0,0,0-.933-.52A.919.919,0,0,1,15.01,1.1.935.935,0,0,1,15.561.094c.063-.031.125-.056.188-.081h.564a1.416,1.416,0,0,0,.395.106,2.839,2.839,0,0,1,1.479,1.015Q19.3,2.6,20.392,4.072A.923.923,0,0,1,20.254,5.431Z" fill="url(#linear-gradient-3)"/>
  </g>
</svg>
